<?xml version="1.0" encoding="utf-8" standalone="no"?>
<!DOCTYPE svg PUBLIC "-//W3C//DTD SVG 1.1//EN"
  "http://www.w3.org/Graphics/SVG/1.1/DTD/svg11.dtd">
<svg height="486.72pt" version="1.1" viewBox="0 0 1027.44 486.72" width="1027.44pt" xmlns="http://www.w3.org/2000/svg" xmlns:xlink="http://www.w3.org/1999/xlink">
 <metadata>
  <rdf:RDF xmlns:cc="http://creativecommons.org/ns#" xmlns:dc="http://purl.org/dc/elements/1.1/" xmlns:rdf="http://www.w3.org/1999/02/22-rdf-syntax-ns#">
   <cc:Work>
    <dc:type rdf:resource="http://purl.org/dc/dcmitype/StillImage"/>
    <dc:date>2023-08-22T01:53:33.501674</dc:date>
    <dc:format>image/svg+xml</dc:format>
    <dc:creator>
     <cc:Agent>
      <dc:title>Matplotlib v3.4.2, https://matplotlib.org/</dc:title>
     </cc:Agent>
    </dc:creator>
   </cc:Work>
  </rdf:RDF>
 </metadata>
 <defs>
  <style type="text/css">*{stroke-linecap:butt;stroke-linejoin:round;}</style>
 </defs>
 <g id="figure_1">
  <g id="patch_1">
   <path d="M 0 486.72 
L 1027.44 486.72 
L 1027.44 0 
L 0 0 
z
" style="fill:#fefeff;"/>
  </g>
  <g id="axes_1">
   <g id="patch_2">
    <path d="M 128.43 433.1808 
L 924.696 433.1808 
L 924.696 58.4064 
L 128.43 58.4064 
z
" style="fill:#eaeaf2;"/>
   </g>
   <g id="matplotlib.axis_1">
    <g id="xtick_1">
     <g id="line2d_1">
      <path clip-path="url(#pc844a39414)" d="M 164.301034 433.1808 
L 164.301034 58.4064 
" style="fill:none;stroke:#ffffff;stroke-linecap:round;stroke-width:0.8;"/>
     </g>
     <g id="line2d_2"/>
     <g id="text_1">
      <!-- 0 -->
      <g style="fill:#262626;" transform="translate(159.801034 449.17955)scale(0.18 -0.18)">
       <defs>
        <path d="M 231 2094 
Q 231 2819 450 3342 
Q 669 3866 1031 4122 
Q 1313 4325 1613 4325 
Q 2100 4325 2488 3828 
Q 2972 3213 2972 2159 
Q 2972 1422 2759 906 
Q 2547 391 2217 158 
Q 1888 -75 1581 -75 
Q 975 -75 572 641 
Q 231 1244 231 2094 
z
M 844 2016 
Q 844 1141 1059 588 
Q 1238 122 1591 122 
Q 1759 122 1940 273 
Q 2122 425 2216 781 
Q 2359 1319 2359 2297 
Q 2359 3022 2209 3506 
Q 2097 3866 1919 4016 
Q 1791 4119 1609 4119 
Q 1397 4119 1231 3928 
Q 1006 3669 925 3112 
Q 844 2556 844 2016 
z
" id="TimesNewRomanPSMT-30" transform="scale(0.015625)"/>
       </defs>
       <use xlink:href="#TimesNewRomanPSMT-30"/>
      </g>
     </g>
    </g>
    <g id="xtick_2">
     <g id="line2d_3">
      <path clip-path="url(#pc844a39414)" d="M 262.415334 433.1808 
L 262.415334 58.4064 
" style="fill:none;stroke:#ffffff;stroke-linecap:round;stroke-width:0.8;"/>
     </g>
     <g id="line2d_4"/>
     <g id="text_2">
      <!-- 500 -->
      <g style="fill:#262626;" transform="translate(248.915334 449.17955)scale(0.18 -0.18)">
       <defs>
        <path d="M 2778 4238 
L 2534 3706 
L 1259 3706 
L 981 3138 
Q 1809 3016 2294 2522 
Q 2709 2097 2709 1522 
Q 2709 1188 2573 903 
Q 2438 619 2231 419 
Q 2025 219 1772 97 
Q 1413 -75 1034 -75 
Q 653 -75 479 54 
Q 306 184 306 341 
Q 306 428 378 495 
Q 450 563 559 563 
Q 641 563 702 538 
Q 763 513 909 409 
Q 1144 247 1384 247 
Q 1750 247 2026 523 
Q 2303 800 2303 1197 
Q 2303 1581 2056 1914 
Q 1809 2247 1375 2428 
Q 1034 2569 447 2591 
L 1259 4238 
L 2778 4238 
z
" id="TimesNewRomanPSMT-35" transform="scale(0.015625)"/>
       </defs>
       <use xlink:href="#TimesNewRomanPSMT-35"/>
       <use x="50" xlink:href="#TimesNewRomanPSMT-30"/>
       <use x="100" xlink:href="#TimesNewRomanPSMT-30"/>
      </g>
     </g>
    </g>
    <g id="xtick_3">
     <g id="line2d_5">
      <path clip-path="url(#pc844a39414)" d="M 360.529634 433.1808 
L 360.529634 58.4064 
" style="fill:none;stroke:#ffffff;stroke-linecap:round;stroke-width:0.8;"/>
     </g>
     <g id="line2d_6"/>
     <g id="text_3">
      <!-- 1000 -->
      <g style="fill:#262626;" transform="translate(342.529634 449.17955)scale(0.18 -0.18)">
       <defs>
        <path d="M 750 3822 
L 1781 4325 
L 1884 4325 
L 1884 747 
Q 1884 391 1914 303 
Q 1944 216 2037 169 
Q 2131 122 2419 116 
L 2419 0 
L 825 0 
L 825 116 
Q 1125 122 1212 167 
Q 1300 213 1334 289 
Q 1369 366 1369 747 
L 1369 3034 
Q 1369 3497 1338 3628 
Q 1316 3728 1258 3775 
Q 1200 3822 1119 3822 
Q 1003 3822 797 3725 
L 750 3822 
z
" id="TimesNewRomanPSMT-31" transform="scale(0.015625)"/>
       </defs>
       <use xlink:href="#TimesNewRomanPSMT-31"/>
       <use x="50" xlink:href="#TimesNewRomanPSMT-30"/>
       <use x="100" xlink:href="#TimesNewRomanPSMT-30"/>
       <use x="150" xlink:href="#TimesNewRomanPSMT-30"/>
      </g>
     </g>
    </g>
    <g id="xtick_4">
     <g id="line2d_7">
      <path clip-path="url(#pc844a39414)" d="M 458.643933 433.1808 
L 458.643933 58.4064 
" style="fill:none;stroke:#ffffff;stroke-linecap:round;stroke-width:0.8;"/>
     </g>
     <g id="line2d_8"/>
     <g id="text_4">
      <!-- 1500 -->
      <g style="fill:#262626;" transform="translate(440.643933 449.17955)scale(0.18 -0.18)">
       <use xlink:href="#TimesNewRomanPSMT-31"/>
       <use x="50" xlink:href="#TimesNewRomanPSMT-35"/>
       <use x="100" xlink:href="#TimesNewRomanPSMT-30"/>
       <use x="150" xlink:href="#TimesNewRomanPSMT-30"/>
      </g>
     </g>
    </g>
    <g id="xtick_5">
     <g id="line2d_9">
      <path clip-path="url(#pc844a39414)" d="M 556.758233 433.1808 
L 556.758233 58.4064 
" style="fill:none;stroke:#ffffff;stroke-linecap:round;stroke-width:0.8;"/>
     </g>
     <g id="line2d_10"/>
     <g id="text_5">
      <!-- 2000 -->
      <g style="fill:#262626;" transform="translate(538.758233 449.17955)scale(0.18 -0.18)">
       <defs>
        <path d="M 2934 816 
L 2638 0 
L 138 0 
L 138 116 
Q 1241 1122 1691 1759 
Q 2141 2397 2141 2925 
Q 2141 3328 1894 3587 
Q 1647 3847 1303 3847 
Q 991 3847 742 3664 
Q 494 3481 375 3128 
L 259 3128 
Q 338 3706 661 4015 
Q 984 4325 1469 4325 
Q 1984 4325 2329 3994 
Q 2675 3663 2675 3213 
Q 2675 2891 2525 2569 
Q 2294 2063 1775 1497 
Q 997 647 803 472 
L 1909 472 
Q 2247 472 2383 497 
Q 2519 522 2628 598 
Q 2738 675 2819 816 
L 2934 816 
z
" id="TimesNewRomanPSMT-32" transform="scale(0.015625)"/>
       </defs>
       <use xlink:href="#TimesNewRomanPSMT-32"/>
       <use x="50" xlink:href="#TimesNewRomanPSMT-30"/>
       <use x="100" xlink:href="#TimesNewRomanPSMT-30"/>
       <use x="150" xlink:href="#TimesNewRomanPSMT-30"/>
      </g>
     </g>
    </g>
    <g id="xtick_6">
     <g id="line2d_11">
      <path clip-path="url(#pc844a39414)" d="M 654.872533 433.1808 
L 654.872533 58.4064 
" style="fill:none;stroke:#ffffff;stroke-linecap:round;stroke-width:0.8;"/>
     </g>
     <g id="line2d_12"/>
     <g id="text_6">
      <!-- 2500 -->
      <g style="fill:#262626;" transform="translate(636.872533 449.17955)scale(0.18 -0.18)">
       <use xlink:href="#TimesNewRomanPSMT-32"/>
       <use x="50" xlink:href="#TimesNewRomanPSMT-35"/>
       <use x="100" xlink:href="#TimesNewRomanPSMT-30"/>
       <use x="150" xlink:href="#TimesNewRomanPSMT-30"/>
      </g>
     </g>
    </g>
    <g id="xtick_7">
     <g id="line2d_13">
      <path clip-path="url(#pc844a39414)" d="M 752.986833 433.1808 
L 752.986833 58.4064 
" style="fill:none;stroke:#ffffff;stroke-linecap:round;stroke-width:0.8;"/>
     </g>
     <g id="line2d_14"/>
     <g id="text_7">
      <!-- 3000 -->
      <g style="fill:#262626;" transform="translate(734.986833 449.17955)scale(0.18 -0.18)">
       <defs>
        <path d="M 325 3431 
Q 506 3859 782 4092 
Q 1059 4325 1472 4325 
Q 1981 4325 2253 3994 
Q 2459 3747 2459 3466 
Q 2459 3003 1878 2509 
Q 2269 2356 2469 2072 
Q 2669 1788 2669 1403 
Q 2669 853 2319 450 
Q 1863 -75 997 -75 
Q 569 -75 414 31 
Q 259 138 259 259 
Q 259 350 332 419 
Q 406 488 509 488 
Q 588 488 669 463 
Q 722 447 909 348 
Q 1097 250 1169 231 
Q 1284 197 1416 197 
Q 1734 197 1970 444 
Q 2206 691 2206 1028 
Q 2206 1275 2097 1509 
Q 2016 1684 1919 1775 
Q 1784 1900 1550 2001 
Q 1316 2103 1072 2103 
L 972 2103 
L 972 2197 
Q 1219 2228 1467 2375 
Q 1716 2522 1828 2728 
Q 1941 2934 1941 3181 
Q 1941 3503 1739 3701 
Q 1538 3900 1238 3900 
Q 753 3900 428 3381 
L 325 3431 
z
" id="TimesNewRomanPSMT-33" transform="scale(0.015625)"/>
       </defs>
       <use xlink:href="#TimesNewRomanPSMT-33"/>
       <use x="50" xlink:href="#TimesNewRomanPSMT-30"/>
       <use x="100" xlink:href="#TimesNewRomanPSMT-30"/>
       <use x="150" xlink:href="#TimesNewRomanPSMT-30"/>
      </g>
     </g>
    </g>
    <g id="xtick_8">
     <g id="line2d_15">
      <path clip-path="url(#pc844a39414)" d="M 851.101132 433.1808 
L 851.101132 58.4064 
" style="fill:none;stroke:#ffffff;stroke-linecap:round;stroke-width:0.8;"/>
     </g>
     <g id="line2d_16"/>
     <g id="text_8">
      <!-- 3500 -->
      <g style="fill:#262626;" transform="translate(833.101132 449.17955)scale(0.18 -0.18)">
       <use xlink:href="#TimesNewRomanPSMT-33"/>
       <use x="50" xlink:href="#TimesNewRomanPSMT-35"/>
       <use x="100" xlink:href="#TimesNewRomanPSMT-30"/>
       <use x="150" xlink:href="#TimesNewRomanPSMT-30"/>
      </g>
     </g>
    </g>
    <g id="text_9">
     <!-- Laplacian of Frame -->
     <g style="fill:#262626;" transform="translate(456.095813 469.528613)scale(0.18 -0.18)">
      <defs>
       <path d="M 3669 1172 
L 3772 1150 
L 3409 0 
L 128 0 
L 128 116 
L 288 116 
Q 556 116 672 291 
Q 738 391 738 753 
L 738 3488 
Q 738 3884 650 3984 
Q 528 4122 288 4122 
L 128 4122 
L 128 4238 
L 2047 4238 
L 2047 4122 
Q 1709 4125 1573 4059 
Q 1438 3994 1388 3894 
Q 1338 3794 1338 3416 
L 1338 753 
Q 1338 494 1388 397 
Q 1425 331 1503 300 
Q 1581 269 1991 269 
L 2300 269 
Q 2788 269 2984 341 
Q 3181 413 3343 595 
Q 3506 778 3669 1172 
z
" id="TimesNewRomanPSMT-4c" transform="scale(0.015625)"/>
       <path d="M 1822 413 
Q 1381 72 1269 19 
Q 1100 -59 909 -59 
Q 613 -59 420 144 
Q 228 347 228 678 
Q 228 888 322 1041 
Q 450 1253 767 1440 
Q 1084 1628 1822 1897 
L 1822 2009 
Q 1822 2438 1686 2597 
Q 1550 2756 1291 2756 
Q 1094 2756 978 2650 
Q 859 2544 859 2406 
L 866 2225 
Q 866 2081 792 2003 
Q 719 1925 600 1925 
Q 484 1925 411 2006 
Q 338 2088 338 2228 
Q 338 2497 613 2722 
Q 888 2947 1384 2947 
Q 1766 2947 2009 2819 
Q 2194 2722 2281 2516 
Q 2338 2381 2338 1966 
L 2338 994 
Q 2338 584 2353 492 
Q 2369 400 2405 369 
Q 2441 338 2488 338 
Q 2538 338 2575 359 
Q 2641 400 2828 588 
L 2828 413 
Q 2478 -56 2159 -56 
Q 2006 -56 1915 50 
Q 1825 156 1822 413 
z
M 1822 616 
L 1822 1706 
Q 1350 1519 1213 1441 
Q 966 1303 859 1153 
Q 753 1003 753 825 
Q 753 600 887 451 
Q 1022 303 1197 303 
Q 1434 303 1822 616 
z
" id="TimesNewRomanPSMT-61" transform="scale(0.015625)"/>
       <path d="M -6 2578 
L 875 2934 
L 994 2934 
L 994 2266 
Q 1216 2644 1439 2795 
Q 1663 2947 1909 2947 
Q 2341 2947 2628 2609 
Q 2981 2197 2981 1534 
Q 2981 794 2556 309 
Q 2206 -88 1675 -88 
Q 1444 -88 1275 -22 
Q 1150 25 994 166 
L 994 -706 
Q 994 -1000 1030 -1079 
Q 1066 -1159 1155 -1206 
Q 1244 -1253 1478 -1253 
L 1478 -1369 
L -22 -1369 
L -22 -1253 
L 56 -1253 
Q 228 -1256 350 -1188 
Q 409 -1153 442 -1076 
Q 475 -1000 475 -688 
L 475 2019 
Q 475 2297 450 2372 
Q 425 2447 370 2484 
Q 316 2522 222 2522 
Q 147 2522 31 2478 
L -6 2578 
z
M 994 2081 
L 994 1013 
Q 994 666 1022 556 
Q 1066 375 1236 237 
Q 1406 100 1666 100 
Q 1978 100 2172 344 
Q 2425 663 2425 1241 
Q 2425 1897 2138 2250 
Q 1938 2494 1663 2494 
Q 1513 2494 1366 2419 
Q 1253 2363 994 2081 
z
" id="TimesNewRomanPSMT-70" transform="scale(0.015625)"/>
       <path d="M 1184 4444 
L 1184 647 
Q 1184 378 1223 290 
Q 1263 203 1344 158 
Q 1425 113 1647 113 
L 1647 0 
L 244 0 
L 244 113 
Q 441 113 512 153 
Q 584 194 625 287 
Q 666 381 666 647 
L 666 3247 
Q 666 3731 644 3842 
Q 622 3953 573 3993 
Q 525 4034 450 4034 
Q 369 4034 244 3984 
L 191 4094 
L 1044 4444 
L 1184 4444 
z
" id="TimesNewRomanPSMT-6c" transform="scale(0.015625)"/>
       <path d="M 2631 1088 
Q 2516 522 2178 217 
Q 1841 -88 1431 -88 
Q 944 -88 581 321 
Q 219 731 219 1428 
Q 219 2103 620 2525 
Q 1022 2947 1584 2947 
Q 2006 2947 2278 2723 
Q 2550 2500 2550 2259 
Q 2550 2141 2473 2067 
Q 2397 1994 2259 1994 
Q 2075 1994 1981 2113 
Q 1928 2178 1911 2362 
Q 1894 2547 1784 2644 
Q 1675 2738 1481 2738 
Q 1169 2738 978 2506 
Q 725 2200 725 1697 
Q 725 1184 976 792 
Q 1228 400 1656 400 
Q 1963 400 2206 609 
Q 2378 753 2541 1131 
L 2631 1088 
z
" id="TimesNewRomanPSMT-63" transform="scale(0.015625)"/>
       <path d="M 928 4444 
Q 1059 4444 1151 4351 
Q 1244 4259 1244 4128 
Q 1244 3997 1151 3903 
Q 1059 3809 928 3809 
Q 797 3809 703 3903 
Q 609 3997 609 4128 
Q 609 4259 701 4351 
Q 794 4444 928 4444 
z
M 1188 2947 
L 1188 647 
Q 1188 378 1227 289 
Q 1266 200 1342 156 
Q 1419 113 1622 113 
L 1622 0 
L 231 0 
L 231 113 
Q 441 113 512 153 
Q 584 194 626 287 
Q 669 381 669 647 
L 669 1750 
Q 669 2216 641 2353 
Q 619 2453 572 2492 
Q 525 2531 444 2531 
Q 356 2531 231 2484 
L 188 2597 
L 1050 2947 
L 1188 2947 
z
" id="TimesNewRomanPSMT-69" transform="scale(0.015625)"/>
       <path d="M 1034 2341 
Q 1538 2947 1994 2947 
Q 2228 2947 2397 2830 
Q 2566 2713 2666 2444 
Q 2734 2256 2734 1869 
L 2734 647 
Q 2734 375 2778 278 
Q 2813 200 2889 156 
Q 2966 113 3172 113 
L 3172 0 
L 1756 0 
L 1756 113 
L 1816 113 
Q 2016 113 2095 173 
Q 2175 234 2206 353 
Q 2219 400 2219 647 
L 2219 1819 
Q 2219 2209 2117 2386 
Q 2016 2563 1775 2563 
Q 1403 2563 1034 2156 
L 1034 647 
Q 1034 356 1069 288 
Q 1113 197 1189 155 
Q 1266 113 1500 113 
L 1500 0 
L 84 0 
L 84 113 
L 147 113 
Q 366 113 442 223 
Q 519 334 519 647 
L 519 1709 
Q 519 2225 495 2337 
Q 472 2450 423 2490 
Q 375 2531 294 2531 
Q 206 2531 84 2484 
L 38 2597 
L 900 2947 
L 1034 2947 
L 1034 2341 
z
" id="TimesNewRomanPSMT-6e" transform="scale(0.015625)"/>
       <path id="TimesNewRomanPSMT-20" transform="scale(0.015625)"/>
       <path d="M 1600 2947 
Q 2250 2947 2644 2453 
Q 2978 2031 2978 1484 
Q 2978 1100 2793 706 
Q 2609 313 2286 112 
Q 1963 -88 1566 -88 
Q 919 -88 538 428 
Q 216 863 216 1403 
Q 216 1797 411 2186 
Q 606 2575 925 2761 
Q 1244 2947 1600 2947 
z
M 1503 2744 
Q 1338 2744 1170 2645 
Q 1003 2547 900 2300 
Q 797 2053 797 1666 
Q 797 1041 1045 587 
Q 1294 134 1700 134 
Q 2003 134 2200 384 
Q 2397 634 2397 1244 
Q 2397 2006 2069 2444 
Q 1847 2744 1503 2744 
z
" id="TimesNewRomanPSMT-6f" transform="scale(0.015625)"/>
       <path d="M 1319 2638 
L 1319 756 
Q 1319 356 1406 250 
Q 1522 113 1716 113 
L 1975 113 
L 1975 0 
L 266 0 
L 266 113 
L 394 113 
Q 519 113 622 175 
Q 725 238 764 344 
Q 803 450 803 756 
L 803 2638 
L 247 2638 
L 247 2863 
L 803 2863 
L 803 3050 
Q 803 3478 940 3775 
Q 1078 4072 1361 4255 
Q 1644 4438 1997 4438 
Q 2325 4438 2600 4225 
Q 2781 4084 2781 3909 
Q 2781 3816 2700 3733 
Q 2619 3650 2525 3650 
Q 2453 3650 2373 3701 
Q 2294 3753 2178 3923 
Q 2063 4094 1966 4153 
Q 1869 4213 1750 4213 
Q 1606 4213 1506 4136 
Q 1406 4059 1362 3898 
Q 1319 3738 1319 3069 
L 1319 2863 
L 2056 2863 
L 2056 2638 
L 1319 2638 
z
" id="TimesNewRomanPSMT-66" transform="scale(0.015625)"/>
       <path d="M 1309 4006 
L 1309 2341 
L 2081 2341 
Q 2347 2341 2470 2458 
Q 2594 2575 2634 2922 
L 2750 2922 
L 2750 1488 
L 2634 1488 
Q 2631 1734 2570 1850 
Q 2509 1966 2401 2023 
Q 2294 2081 2081 2081 
L 1309 2081 
L 1309 750 
Q 1309 428 1350 325 
Q 1381 247 1481 191 
Q 1619 116 1769 116 
L 1922 116 
L 1922 0 
L 103 0 
L 103 116 
L 253 116 
Q 516 116 634 269 
Q 709 369 709 750 
L 709 3488 
Q 709 3809 669 3913 
Q 638 3991 541 4047 
Q 406 4122 253 4122 
L 103 4122 
L 103 4238 
L 3256 4238 
L 3297 3306 
L 3188 3306 
Q 3106 3603 2998 3742 
Q 2891 3881 2733 3943 
Q 2575 4006 2244 4006 
L 1309 4006 
z
" id="TimesNewRomanPSMT-46" transform="scale(0.015625)"/>
       <path d="M 1038 2947 
L 1038 2303 
Q 1397 2947 1775 2947 
Q 1947 2947 2059 2842 
Q 2172 2738 2172 2600 
Q 2172 2478 2090 2393 
Q 2009 2309 1897 2309 
Q 1788 2309 1652 2417 
Q 1516 2525 1450 2525 
Q 1394 2525 1328 2463 
Q 1188 2334 1038 2041 
L 1038 669 
Q 1038 431 1097 309 
Q 1138 225 1241 169 
Q 1344 113 1538 113 
L 1538 0 
L 72 0 
L 72 113 
Q 291 113 397 181 
Q 475 231 506 341 
Q 522 394 522 644 
L 522 1753 
Q 522 2253 501 2348 
Q 481 2444 426 2487 
Q 372 2531 291 2531 
Q 194 2531 72 2484 
L 41 2597 
L 906 2947 
L 1038 2947 
z
" id="TimesNewRomanPSMT-72" transform="scale(0.015625)"/>
       <path d="M 1050 2338 
Q 1363 2650 1419 2697 
Q 1559 2816 1721 2881 
Q 1884 2947 2044 2947 
Q 2313 2947 2506 2790 
Q 2700 2634 2766 2338 
Q 3088 2713 3309 2830 
Q 3531 2947 3766 2947 
Q 3994 2947 4170 2830 
Q 4347 2713 4450 2447 
Q 4519 2266 4519 1878 
L 4519 647 
Q 4519 378 4559 278 
Q 4591 209 4675 161 
Q 4759 113 4950 113 
L 4950 0 
L 3538 0 
L 3538 113 
L 3597 113 
Q 3781 113 3884 184 
Q 3956 234 3988 344 
Q 4000 397 4000 647 
L 4000 1878 
Q 4000 2228 3916 2372 
Q 3794 2572 3525 2572 
Q 3359 2572 3192 2489 
Q 3025 2406 2788 2181 
L 2781 2147 
L 2788 2013 
L 2788 647 
Q 2788 353 2820 281 
Q 2853 209 2943 161 
Q 3034 113 3253 113 
L 3253 0 
L 1806 0 
L 1806 113 
Q 2044 113 2133 169 
Q 2222 225 2256 338 
Q 2272 391 2272 647 
L 2272 1878 
Q 2272 2228 2169 2381 
Q 2031 2581 1784 2581 
Q 1616 2581 1450 2491 
Q 1191 2353 1050 2181 
L 1050 647 
Q 1050 366 1089 281 
Q 1128 197 1204 155 
Q 1281 113 1516 113 
L 1516 0 
L 100 0 
L 100 113 
Q 297 113 375 155 
Q 453 197 493 289 
Q 534 381 534 647 
L 534 1741 
Q 534 2213 506 2350 
Q 484 2453 437 2492 
Q 391 2531 309 2531 
Q 222 2531 100 2484 
L 53 2597 
L 916 2947 
L 1050 2947 
L 1050 2338 
z
" id="TimesNewRomanPSMT-6d" transform="scale(0.015625)"/>
       <path d="M 681 1784 
Q 678 1147 991 784 
Q 1303 422 1725 422 
Q 2006 422 2214 576 
Q 2422 731 2563 1106 
L 2659 1044 
Q 2594 616 2278 264 
Q 1963 -88 1488 -88 
Q 972 -88 605 314 
Q 238 716 238 1394 
Q 238 2128 614 2539 
Q 991 2950 1559 2950 
Q 2041 2950 2350 2633 
Q 2659 2316 2659 1784 
L 681 1784 
z
M 681 1966 
L 2006 1966 
Q 1991 2241 1941 2353 
Q 1863 2528 1708 2628 
Q 1553 2728 1384 2728 
Q 1125 2728 920 2526 
Q 716 2325 681 1966 
z
" id="TimesNewRomanPSMT-65" transform="scale(0.015625)"/>
      </defs>
      <use xlink:href="#TimesNewRomanPSMT-4c"/>
      <use x="61.083984" xlink:href="#TimesNewRomanPSMT-61"/>
      <use x="105.46875" xlink:href="#TimesNewRomanPSMT-70"/>
      <use x="155.46875" xlink:href="#TimesNewRomanPSMT-6c"/>
      <use x="183.251953" xlink:href="#TimesNewRomanPSMT-61"/>
      <use x="227.636719" xlink:href="#TimesNewRomanPSMT-63"/>
      <use x="272.021484" xlink:href="#TimesNewRomanPSMT-69"/>
      <use x="299.804688" xlink:href="#TimesNewRomanPSMT-61"/>
      <use x="344.189453" xlink:href="#TimesNewRomanPSMT-6e"/>
      <use x="394.189453" xlink:href="#TimesNewRomanPSMT-20"/>
      <use x="419.189453" xlink:href="#TimesNewRomanPSMT-6f"/>
      <use x="469.189453" xlink:href="#TimesNewRomanPSMT-66"/>
      <use x="502.490234" xlink:href="#TimesNewRomanPSMT-20"/>
      <use x="527.490234" xlink:href="#TimesNewRomanPSMT-46"/>
      <use x="583.105469" xlink:href="#TimesNewRomanPSMT-72"/>
      <use x="616.40625" xlink:href="#TimesNewRomanPSMT-61"/>
      <use x="660.791016" xlink:href="#TimesNewRomanPSMT-6d"/>
      <use x="738.574219" xlink:href="#TimesNewRomanPSMT-65"/>
     </g>
    </g>
   </g>
   <g id="matplotlib.axis_2">
    <g id="ytick_1">
     <g id="line2d_17">
      <path clip-path="url(#pc844a39414)" d="M 128.43 433.1808 
L 924.696 433.1808 
" style="fill:none;stroke:#ffffff;stroke-linecap:round;stroke-width:0.8;"/>
     </g>
     <g id="line2d_18"/>
     <g id="text_10">
      <!-- 0 -->
      <g style="fill:#262626;" transform="translate(115.93 439.430175)scale(0.18 -0.18)">
       <use xlink:href="#TimesNewRomanPSMT-30"/>
      </g>
     </g>
    </g>
    <g id="ytick_2">
     <g id="line2d_19">
      <path clip-path="url(#pc844a39414)" d="M 128.43 350.88756 
L 924.696 350.88756 
" style="fill:none;stroke:#ffffff;stroke-linecap:round;stroke-width:0.8;"/>
     </g>
     <g id="line2d_20"/>
     <g id="text_11">
      <!-- 200000 -->
      <g style="fill:#262626;" transform="translate(70.93 357.136935)scale(0.18 -0.18)">
       <use xlink:href="#TimesNewRomanPSMT-32"/>
       <use x="50" xlink:href="#TimesNewRomanPSMT-30"/>
       <use x="100" xlink:href="#TimesNewRomanPSMT-30"/>
       <use x="150" xlink:href="#TimesNewRomanPSMT-30"/>
       <use x="200" xlink:href="#TimesNewRomanPSMT-30"/>
       <use x="250" xlink:href="#TimesNewRomanPSMT-30"/>
      </g>
     </g>
    </g>
    <g id="ytick_3">
     <g id="line2d_21">
      <path clip-path="url(#pc844a39414)" d="M 128.43 268.59432 
L 924.696 268.59432 
" style="fill:none;stroke:#ffffff;stroke-linecap:round;stroke-width:0.8;"/>
     </g>
     <g id="line2d_22"/>
     <g id="text_12">
      <!-- 400000 -->
      <g style="fill:#262626;" transform="translate(70.93 274.843695)scale(0.18 -0.18)">
       <defs>
        <path d="M 2978 1563 
L 2978 1119 
L 2409 1119 
L 2409 0 
L 1894 0 
L 1894 1119 
L 100 1119 
L 100 1519 
L 2066 4325 
L 2409 4325 
L 2409 1563 
L 2978 1563 
z
M 1894 1563 
L 1894 3666 
L 406 1563 
L 1894 1563 
z
" id="TimesNewRomanPSMT-34" transform="scale(0.015625)"/>
       </defs>
       <use xlink:href="#TimesNewRomanPSMT-34"/>
       <use x="50" xlink:href="#TimesNewRomanPSMT-30"/>
       <use x="100" xlink:href="#TimesNewRomanPSMT-30"/>
       <use x="150" xlink:href="#TimesNewRomanPSMT-30"/>
       <use x="200" xlink:href="#TimesNewRomanPSMT-30"/>
       <use x="250" xlink:href="#TimesNewRomanPSMT-30"/>
      </g>
     </g>
    </g>
    <g id="ytick_4">
     <g id="line2d_23">
      <path clip-path="url(#pc844a39414)" d="M 128.43 186.301081 
L 924.696 186.301081 
" style="fill:none;stroke:#ffffff;stroke-linecap:round;stroke-width:0.8;"/>
     </g>
     <g id="line2d_24"/>
     <g id="text_13">
      <!-- 600000 -->
      <g style="fill:#262626;" transform="translate(70.93 192.550456)scale(0.18 -0.18)">
       <defs>
        <path d="M 2869 4325 
L 2869 4209 
Q 2456 4169 2195 4045 
Q 1934 3922 1679 3669 
Q 1425 3416 1258 3105 
Q 1091 2794 978 2366 
Q 1428 2675 1881 2675 
Q 2316 2675 2634 2325 
Q 2953 1975 2953 1425 
Q 2953 894 2631 456 
Q 2244 -75 1606 -75 
Q 1172 -75 869 213 
Q 275 772 275 1663 
Q 275 2231 503 2743 
Q 731 3256 1154 3653 
Q 1578 4050 1965 4187 
Q 2353 4325 2688 4325 
L 2869 4325 
z
M 925 2138 
Q 869 1716 869 1456 
Q 869 1156 980 804 
Q 1091 453 1309 247 
Q 1469 100 1697 100 
Q 1969 100 2183 356 
Q 2397 613 2397 1088 
Q 2397 1622 2184 2012 
Q 1972 2403 1581 2403 
Q 1463 2403 1327 2353 
Q 1191 2303 925 2138 
z
" id="TimesNewRomanPSMT-36" transform="scale(0.015625)"/>
       </defs>
       <use xlink:href="#TimesNewRomanPSMT-36"/>
       <use x="50" xlink:href="#TimesNewRomanPSMT-30"/>
       <use x="100" xlink:href="#TimesNewRomanPSMT-30"/>
       <use x="150" xlink:href="#TimesNewRomanPSMT-30"/>
       <use x="200" xlink:href="#TimesNewRomanPSMT-30"/>
       <use x="250" xlink:href="#TimesNewRomanPSMT-30"/>
      </g>
     </g>
    </g>
    <g id="ytick_5">
     <g id="line2d_25">
      <path clip-path="url(#pc844a39414)" d="M 128.43 104.007841 
L 924.696 104.007841 
" style="fill:none;stroke:#ffffff;stroke-linecap:round;stroke-width:0.8;"/>
     </g>
     <g id="line2d_26"/>
     <g id="text_14">
      <!-- 800000 -->
      <g style="fill:#262626;" transform="translate(70.93 110.257216)scale(0.18 -0.18)">
       <defs>
        <path d="M 1228 2134 
Q 725 2547 579 2797 
Q 434 3047 434 3316 
Q 434 3728 753 4026 
Q 1072 4325 1600 4325 
Q 2113 4325 2425 4047 
Q 2738 3769 2738 3413 
Q 2738 3175 2569 2928 
Q 2400 2681 1866 2347 
Q 2416 1922 2594 1678 
Q 2831 1359 2831 1006 
Q 2831 559 2490 242 
Q 2150 -75 1597 -75 
Q 994 -75 656 303 
Q 388 606 388 966 
Q 388 1247 577 1523 
Q 766 1800 1228 2134 
z
M 1719 2469 
Q 2094 2806 2194 3001 
Q 2294 3197 2294 3444 
Q 2294 3772 2109 3958 
Q 1925 4144 1606 4144 
Q 1288 4144 1088 3959 
Q 888 3775 888 3528 
Q 888 3366 970 3203 
Q 1053 3041 1206 2894 
L 1719 2469 
z
M 1375 2016 
Q 1116 1797 991 1539 
Q 866 1281 866 981 
Q 866 578 1086 336 
Q 1306 94 1647 94 
Q 1984 94 2187 284 
Q 2391 475 2391 747 
Q 2391 972 2272 1150 
Q 2050 1481 1375 2016 
z
" id="TimesNewRomanPSMT-38" transform="scale(0.015625)"/>
       </defs>
       <use xlink:href="#TimesNewRomanPSMT-38"/>
       <use x="50" xlink:href="#TimesNewRomanPSMT-30"/>
       <use x="100" xlink:href="#TimesNewRomanPSMT-30"/>
       <use x="150" xlink:href="#TimesNewRomanPSMT-30"/>
       <use x="200" xlink:href="#TimesNewRomanPSMT-30"/>
       <use x="250" xlink:href="#TimesNewRomanPSMT-30"/>
      </g>
     </g>
    </g>
    <g id="text_15">
     <!-- Frame Number -->
     <g style="fill:#262626;" transform="translate(63.079688 300.527663)rotate(-90)scale(0.18 -0.18)">
      <defs>
       <path d="M -84 4238 
L 1066 4238 
L 3656 1059 
L 3656 3503 
Q 3656 3894 3569 3991 
Q 3453 4122 3203 4122 
L 3056 4122 
L 3056 4238 
L 4531 4238 
L 4531 4122 
L 4381 4122 
Q 4113 4122 4000 3959 
Q 3931 3859 3931 3503 
L 3931 -69 
L 3819 -69 
L 1025 3344 
L 1025 734 
Q 1025 344 1109 247 
Q 1228 116 1475 116 
L 1625 116 
L 1625 0 
L 150 0 
L 150 116 
L 297 116 
Q 569 116 681 278 
Q 750 378 750 734 
L 750 3681 
Q 566 3897 470 3965 
Q 375 4034 191 4094 
Q 100 4122 -84 4122 
L -84 4238 
z
" id="TimesNewRomanPSMT-4e" transform="scale(0.015625)"/>
       <path d="M 2709 2863 
L 2709 1128 
Q 2709 631 2732 520 
Q 2756 409 2807 365 
Q 2859 322 2928 322 
Q 3025 322 3147 375 
L 3191 266 
L 2334 -88 
L 2194 -88 
L 2194 519 
Q 1825 119 1631 15 
Q 1438 -88 1222 -88 
Q 981 -88 804 51 
Q 628 191 559 409 
Q 491 628 491 1028 
L 491 2306 
Q 491 2509 447 2587 
Q 403 2666 317 2708 
Q 231 2750 6 2747 
L 6 2863 
L 1009 2863 
L 1009 947 
Q 1009 547 1148 422 
Q 1288 297 1484 297 
Q 1619 297 1789 381 
Q 1959 466 2194 703 
L 2194 2325 
Q 2194 2569 2105 2655 
Q 2016 2741 1734 2747 
L 1734 2863 
L 2709 2863 
z
" id="TimesNewRomanPSMT-75" transform="scale(0.015625)"/>
       <path d="M 984 2369 
Q 1400 2947 1881 2947 
Q 2322 2947 2650 2570 
Q 2978 2194 2978 1541 
Q 2978 778 2472 313 
Q 2038 -88 1503 -88 
Q 1253 -88 995 3 
Q 738 94 469 275 
L 469 3241 
Q 469 3728 445 3840 
Q 422 3953 372 3993 
Q 322 4034 247 4034 
Q 159 4034 28 3984 
L -16 4094 
L 844 4444 
L 984 4444 
L 984 2369 
z
M 984 2169 
L 984 456 
Q 1144 300 1314 220 
Q 1484 141 1663 141 
Q 1947 141 2192 453 
Q 2438 766 2438 1363 
Q 2438 1913 2192 2208 
Q 1947 2503 1634 2503 
Q 1469 2503 1303 2419 
Q 1178 2356 984 2169 
z
" id="TimesNewRomanPSMT-62" transform="scale(0.015625)"/>
      </defs>
      <use xlink:href="#TimesNewRomanPSMT-46"/>
      <use x="55.615234" xlink:href="#TimesNewRomanPSMT-72"/>
      <use x="88.916016" xlink:href="#TimesNewRomanPSMT-61"/>
      <use x="133.300781" xlink:href="#TimesNewRomanPSMT-6d"/>
      <use x="211.083984" xlink:href="#TimesNewRomanPSMT-65"/>
      <use x="255.46875" xlink:href="#TimesNewRomanPSMT-20"/>
      <use x="280.46875" xlink:href="#TimesNewRomanPSMT-4e"/>
      <use x="352.685547" xlink:href="#TimesNewRomanPSMT-75"/>
      <use x="402.685547" xlink:href="#TimesNewRomanPSMT-6d"/>
      <use x="480.46875" xlink:href="#TimesNewRomanPSMT-62"/>
      <use x="530.46875" xlink:href="#TimesNewRomanPSMT-65"/>
      <use x="574.853516" xlink:href="#TimesNewRomanPSMT-72"/>
     </g>
    </g>
   </g>
   <g id="patch_3">
    <path clip-path="url(#pc844a39414)" d="M 164.623909 433.1808 
L 179.101473 433.1808 
L 179.101473 429.88907 
L 164.623909 429.88907 
z
" style="fill:#7a76c2;"/>
   </g>
   <g id="patch_4">
    <path clip-path="url(#pc844a39414)" d="M 179.101473 433.1808 
L 193.579036 433.1808 
L 193.579036 349.391058 
L 179.101473 349.391058 
z
" style="fill:#7a76c2;"/>
   </g>
   <g id="patch_5">
    <path clip-path="url(#pc844a39414)" d="M 193.579036 433.1808 
L 208.0566 433.1808 
L 208.0566 187.24951 
L 193.579036 187.24951 
z
" style="fill:#7a76c2;"/>
   </g>
   <g id="patch_6">
    <path clip-path="url(#pc844a39414)" d="M 208.0566 433.1808 
L 222.534164 433.1808 
L 222.534164 161.429183 
L 208.0566 161.429183 
z
" style="fill:#7a76c2;"/>
   </g>
   <g id="patch_7">
    <path clip-path="url(#pc844a39414)" d="M 222.534164 433.1808 
L 237.011727 433.1808 
L 237.011727 99.404769 
L 222.534164 99.404769 
z
" style="fill:#7a76c2;"/>
   </g>
   <g id="patch_8">
    <path clip-path="url(#pc844a39414)" d="M 237.011727 433.1808 
L 251.489291 433.1808 
L 251.489291 96.394893 
L 237.011727 96.394893 
z
" style="fill:#7a76c2;"/>
   </g>
   <g id="patch_9">
    <path clip-path="url(#pc844a39414)" d="M 251.489291 433.1808 
L 265.966855 433.1808 
L 265.966855 76.2528 
L 251.489291 76.2528 
z
" style="fill:#7a76c2;"/>
   </g>
   <g id="patch_10">
    <path clip-path="url(#pc844a39414)" d="M 265.966855 433.1808 
L 280.444418 433.1808 
L 280.444418 159.940499 
L 265.966855 159.940499 
z
" style="fill:#7a76c2;"/>
   </g>
   <g id="patch_11">
    <path clip-path="url(#pc844a39414)" d="M 280.444418 433.1808 
L 294.921982 433.1808 
L 294.921982 247.286543 
L 280.444418 247.286543 
z
" style="fill:#7a76c2;"/>
   </g>
   <g id="patch_12">
    <path clip-path="url(#pc844a39414)" d="M 294.921982 433.1808 
L 309.399545 433.1808 
L 309.399545 274.363488 
L 294.921982 274.363488 
z
" style="fill:#7a76c2;"/>
   </g>
   <g id="patch_13">
    <path clip-path="url(#pc844a39414)" d="M 309.399545 433.1808 
L 323.877109 433.1808 
L 323.877109 284.313152 
L 309.399545 284.313152 
z
" style="fill:#7a76c2;"/>
   </g>
   <g id="patch_14">
    <path clip-path="url(#pc844a39414)" d="M 323.877109 433.1808 
L 338.354673 433.1808 
L 338.354673 308.244438 
L 323.877109 308.244438 
z
" style="fill:#7a76c2;"/>
   </g>
   <g id="patch_15">
    <path clip-path="url(#pc844a39414)" d="M 338.354673 433.1808 
L 352.832236 433.1808 
L 352.832236 348.379674 
L 338.354673 348.379674 
z
" style="fill:#7a76c2;"/>
   </g>
   <g id="patch_16">
    <path clip-path="url(#pc844a39414)" d="M 352.832236 433.1808 
L 367.3098 433.1808 
L 367.3098 356.582664 
L 352.832236 356.582664 
z
" style="fill:#7a76c2;"/>
   </g>
   <g id="patch_17">
    <path clip-path="url(#pc844a39414)" d="M 367.3098 433.1808 
L 381.787364 433.1808 
L 381.787364 356.224688 
L 367.3098 356.224688 
z
" style="fill:#7a76c2;"/>
   </g>
   <g id="patch_18">
    <path clip-path="url(#pc844a39414)" d="M 381.787364 433.1808 
L 396.264927 433.1808 
L 396.264927 371.583899 
L 381.787364 371.583899 
z
" style="fill:#7a76c2;"/>
   </g>
   <g id="patch_19">
    <path clip-path="url(#pc844a39414)" d="M 396.264927 433.1808 
L 410.742491 433.1808 
L 410.742491 383.48885 
L 396.264927 383.48885 
z
" style="fill:#7a76c2;"/>
   </g>
   <g id="patch_20">
    <path clip-path="url(#pc844a39414)" d="M 410.742491 433.1808 
L 425.220055 433.1808 
L 425.220055 393.978769 
L 410.742491 393.978769 
z
" style="fill:#7a76c2;"/>
   </g>
   <g id="patch_21">
    <path clip-path="url(#pc844a39414)" d="M 425.220055 433.1808 
L 439.697618 433.1808 
L 439.697618 399.589111 
L 425.220055 399.589111 
z
" style="fill:#7a76c2;"/>
   </g>
   <g id="patch_22">
    <path clip-path="url(#pc844a39414)" d="M 439.697618 433.1808 
L 454.175182 433.1808 
L 454.175182 405.000714 
L 439.697618 405.000714 
z
" style="fill:#7a76c2;"/>
   </g>
   <g id="patch_23">
    <path clip-path="url(#pc844a39414)" d="M 454.175182 433.1808 
L 468.652745 433.1808 
L 468.652745 414.50188 
L 454.175182 414.50188 
z
" style="fill:#7a76c2;"/>
   </g>
   <g id="patch_24">
    <path clip-path="url(#pc844a39414)" d="M 468.652745 433.1808 
L 483.130309 433.1808 
L 483.130309 419.135401 
L 468.652745 419.135401 
z
" style="fill:#7a76c2;"/>
   </g>
   <g id="patch_25">
    <path clip-path="url(#pc844a39414)" d="M 483.130309 433.1808 
L 497.607873 433.1808 
L 497.607873 423.000715 
L 483.130309 423.000715 
z
" style="fill:#7a76c2;"/>
   </g>
   <g id="patch_26">
    <path clip-path="url(#pc844a39414)" d="M 497.607873 433.1808 
L 512.085436 433.1808 
L 512.085436 425.176137 
L 497.607873 425.176137 
z
" style="fill:#7a76c2;"/>
   </g>
   <g id="patch_27">
    <path clip-path="url(#pc844a39414)" d="M 512.085436 433.1808 
L 526.563 433.1808 
L 526.563 428.104542 
L 512.085436 428.104542 
z
" style="fill:#7a76c2;"/>
   </g>
   <g id="patch_28">
    <path clip-path="url(#pc844a39414)" d="M 526.563 433.1808 
L 541.040564 433.1808 
L 541.040564 429.11428 
L 526.563 429.11428 
z
" style="fill:#7a76c2;"/>
   </g>
   <g id="patch_29">
    <path clip-path="url(#pc844a39414)" d="M 541.040564 433.1808 
L 555.518127 433.1808 
L 555.518127 430.479524 
L 541.040564 430.479524 
z
" style="fill:#7a76c2;"/>
   </g>
   <g id="patch_30">
    <path clip-path="url(#pc844a39414)" d="M 555.518127 433.1808 
L 569.995691 433.1808 
L 569.995691 429.965603 
L 555.518127 429.965603 
z
" style="fill:#7a76c2;"/>
   </g>
   <g id="patch_31">
    <path clip-path="url(#pc844a39414)" d="M 569.995691 433.1808 
L 584.473255 433.1808 
L 584.473255 432.394077 
L 569.995691 432.394077 
z
" style="fill:#7a76c2;"/>
   </g>
   <g id="patch_32">
    <path clip-path="url(#pc844a39414)" d="M 584.473255 433.1808 
L 598.950818 433.1808 
L 598.950818 433.116611 
L 584.473255 433.116611 
z
" style="fill:#7a76c2;"/>
   </g>
   <g id="patch_33">
    <path clip-path="url(#pc844a39414)" d="M 598.950818 433.1808 
L 613.428382 433.1808 
L 613.428382 433.178331 
L 598.950818 433.178331 
z
" style="fill:#7a76c2;"/>
   </g>
   <g id="patch_34">
    <path clip-path="url(#pc844a39414)" d="M 613.428382 433.1808 
L 627.905945 433.1808 
L 627.905945 433.1808 
L 613.428382 433.1808 
z
" style="fill:#7a76c2;"/>
   </g>
   <g id="patch_35">
    <path clip-path="url(#pc844a39414)" d="M 627.905945 433.1808 
L 642.383509 433.1808 
L 642.383509 433.1808 
L 627.905945 433.1808 
z
" style="fill:#7a76c2;"/>
   </g>
   <g id="patch_36">
    <path clip-path="url(#pc844a39414)" d="M 642.383509 433.1808 
L 656.861073 433.1808 
L 656.861073 433.1808 
L 642.383509 433.1808 
z
" style="fill:#7a76c2;"/>
   </g>
   <g id="patch_37">
    <path clip-path="url(#pc844a39414)" d="M 656.861073 433.1808 
L 671.338636 433.1808 
L 671.338636 433.1808 
L 656.861073 433.1808 
z
" style="fill:#7a76c2;"/>
   </g>
   <g id="patch_38">
    <path clip-path="url(#pc844a39414)" d="M 671.338636 433.1808 
L 685.8162 433.1808 
L 685.8162 433.1808 
L 671.338636 433.1808 
z
" style="fill:#7a76c2;"/>
   </g>
   <g id="patch_39">
    <path clip-path="url(#pc844a39414)" d="M 685.8162 433.1808 
L 700.293764 433.1808 
L 700.293764 433.1808 
L 685.8162 433.1808 
z
" style="fill:#7a76c2;"/>
   </g>
   <g id="patch_40">
    <path clip-path="url(#pc844a39414)" d="M 700.293764 433.1808 
L 714.771327 433.1808 
L 714.771327 433.1808 
L 700.293764 433.1808 
z
" style="fill:#7a76c2;"/>
   </g>
   <g id="patch_41">
    <path clip-path="url(#pc844a39414)" d="M 714.771327 433.1808 
L 729.248891 433.1808 
L 729.248891 433.1808 
L 714.771327 433.1808 
z
" style="fill:#7a76c2;"/>
   </g>
   <g id="patch_42">
    <path clip-path="url(#pc844a39414)" d="M 729.248891 433.1808 
L 743.726455 433.1808 
L 743.726455 433.1808 
L 729.248891 433.1808 
z
" style="fill:#7a76c2;"/>
   </g>
   <g id="patch_43">
    <path clip-path="url(#pc844a39414)" d="M 743.726455 433.1808 
L 758.204018 433.1808 
L 758.204018 433.1808 
L 743.726455 433.1808 
z
" style="fill:#7a76c2;"/>
   </g>
   <g id="patch_44">
    <path clip-path="url(#pc844a39414)" d="M 758.204018 433.1808 
L 772.681582 433.1808 
L 772.681582 433.1808 
L 758.204018 433.1808 
z
" style="fill:#7a76c2;"/>
   </g>
   <g id="patch_45">
    <path clip-path="url(#pc844a39414)" d="M 772.681582 433.1808 
L 787.159145 433.1808 
L 787.159145 433.1808 
L 772.681582 433.1808 
z
" style="fill:#7a76c2;"/>
   </g>
   <g id="patch_46">
    <path clip-path="url(#pc844a39414)" d="M 787.159145 433.1808 
L 801.636709 433.1808 
L 801.636709 433.1808 
L 787.159145 433.1808 
z
" style="fill:#7a76c2;"/>
   </g>
   <g id="patch_47">
    <path clip-path="url(#pc844a39414)" d="M 801.636709 433.1808 
L 816.114273 433.1808 
L 816.114273 433.1808 
L 801.636709 433.1808 
z
" style="fill:#7a76c2;"/>
   </g>
   <g id="patch_48">
    <path clip-path="url(#pc844a39414)" d="M 816.114273 433.1808 
L 830.591836 433.1808 
L 830.591836 433.1808 
L 816.114273 433.1808 
z
" style="fill:#7a76c2;"/>
   </g>
   <g id="patch_49">
    <path clip-path="url(#pc844a39414)" d="M 830.591836 433.1808 
L 845.0694 433.1808 
L 845.0694 433.1808 
L 830.591836 433.1808 
z
" style="fill:#7a76c2;"/>
   </g>
   <g id="patch_50">
    <path clip-path="url(#pc844a39414)" d="M 845.0694 433.1808 
L 859.546964 433.1808 
L 859.546964 433.1808 
L 845.0694 433.1808 
z
" style="fill:#7a76c2;"/>
   </g>
   <g id="patch_51">
    <path clip-path="url(#pc844a39414)" d="M 859.546964 433.1808 
L 874.024527 433.1808 
L 874.024527 433.1808 
L 859.546964 433.1808 
z
" style="fill:#7a76c2;"/>
   </g>
   <g id="patch_52">
    <path clip-path="url(#pc844a39414)" d="M 874.024527 433.1808 
L 888.502091 433.1808 
L 888.502091 433.180389 
L 874.024527 433.180389 
z
" style="fill:#7a76c2;"/>
   </g>
   <g id="patch_53">
    <path d="M 128.43 433.1808 
L 128.43 58.4064 
" style="fill:none;"/>
   </g>
   <g id="patch_54">
    <path d="M 924.696 433.1808 
L 924.696 58.4064 
" style="fill:none;"/>
   </g>
   <g id="patch_55">
    <path d="M 128.43 433.1808 
L 924.696 433.1808 
" style="fill:none;"/>
   </g>
   <g id="patch_56">
    <path d="M 128.43 58.4064 
L 924.696 58.4064 
" style="fill:none;"/>
   </g>
   <g id="text_16">
    <!-- Laplacian of Frames of 30FPS videos -->
    <g style="fill:#262626;" transform="translate(363.687188 52.4064)scale(0.216 -0.216)">
     <defs>
      <path d="M 2050 2947 
L 2050 1972 
L 1947 1972 
Q 1828 2431 1642 2597 
Q 1456 2763 1169 2763 
Q 950 2763 815 2647 
Q 681 2531 681 2391 
Q 681 2216 781 2091 
Q 878 1963 1175 1819 
L 1631 1597 
Q 2266 1288 2266 781 
Q 2266 391 1970 151 
Q 1675 -88 1309 -88 
Q 1047 -88 709 6 
Q 606 38 541 38 
Q 469 38 428 -44 
L 325 -44 
L 325 978 
L 428 978 
Q 516 541 762 319 
Q 1009 97 1316 97 
Q 1531 97 1667 223 
Q 1803 350 1803 528 
Q 1803 744 1651 891 
Q 1500 1038 1047 1263 
Q 594 1488 453 1669 
Q 313 1847 313 2119 
Q 313 2472 555 2709 
Q 797 2947 1181 2947 
Q 1350 2947 1591 2875 
Q 1750 2828 1803 2828 
Q 1853 2828 1881 2850 
Q 1909 2872 1947 2947 
L 2050 2947 
z
" id="TimesNewRomanPSMT-73" transform="scale(0.015625)"/>
      <path d="M 1313 1984 
L 1313 750 
Q 1313 350 1400 253 
Q 1519 116 1759 116 
L 1922 116 
L 1922 0 
L 106 0 
L 106 116 
L 266 116 
Q 534 116 650 291 
Q 713 388 713 750 
L 713 3488 
Q 713 3888 628 3984 
Q 506 4122 266 4122 
L 106 4122 
L 106 4238 
L 1659 4238 
Q 2228 4238 2556 4120 
Q 2884 4003 3109 3725 
Q 3334 3447 3334 3066 
Q 3334 2547 2992 2222 
Q 2650 1897 2025 1897 
Q 1872 1897 1694 1919 
Q 1516 1941 1313 1984 
z
M 1313 2163 
Q 1478 2131 1606 2115 
Q 1734 2100 1825 2100 
Q 2150 2100 2386 2351 
Q 2622 2603 2622 3003 
Q 2622 3278 2509 3514 
Q 2397 3750 2190 3867 
Q 1984 3984 1722 3984 
Q 1563 3984 1313 3925 
L 1313 2163 
z
" id="TimesNewRomanPSMT-50" transform="scale(0.015625)"/>
      <path d="M 2934 4334 
L 2934 2869 
L 2819 2869 
Q 2763 3291 2617 3541 
Q 2472 3791 2203 3937 
Q 1934 4084 1647 4084 
Q 1322 4084 1109 3886 
Q 897 3688 897 3434 
Q 897 3241 1031 3081 
Q 1225 2847 1953 2456 
Q 2547 2138 2764 1967 
Q 2981 1797 3098 1565 
Q 3216 1334 3216 1081 
Q 3216 600 2842 251 
Q 2469 -97 1881 -97 
Q 1697 -97 1534 -69 
Q 1438 -53 1133 45 
Q 828 144 747 144 
Q 669 144 623 97 
Q 578 50 556 -97 
L 441 -97 
L 441 1356 
L 556 1356 
Q 638 900 775 673 
Q 913 447 1195 297 
Q 1478 147 1816 147 
Q 2206 147 2432 353 
Q 2659 559 2659 841 
Q 2659 997 2573 1156 
Q 2488 1316 2306 1453 
Q 2184 1547 1640 1851 
Q 1097 2156 867 2337 
Q 638 2519 519 2737 
Q 400 2956 400 3219 
Q 400 3675 750 4004 
Q 1100 4334 1641 4334 
Q 1978 4334 2356 4169 
Q 2531 4091 2603 4091 
Q 2684 4091 2736 4139 
Q 2788 4188 2819 4334 
L 2934 4334 
z
" id="TimesNewRomanPSMT-53" transform="scale(0.015625)"/>
      <path d="M 53 2863 
L 1400 2863 
L 1400 2747 
L 1313 2747 
Q 1191 2747 1127 2687 
Q 1063 2628 1063 2528 
Q 1063 2419 1128 2269 
L 1794 688 
L 2463 2328 
Q 2534 2503 2534 2594 
Q 2534 2638 2509 2666 
Q 2475 2713 2422 2730 
Q 2369 2747 2206 2747 
L 2206 2863 
L 3141 2863 
L 3141 2747 
Q 2978 2734 2916 2681 
Q 2806 2588 2719 2369 
L 1703 -88 
L 1575 -88 
L 553 2328 
Q 484 2497 421 2570 
Q 359 2644 263 2694 
Q 209 2722 53 2747 
L 53 2863 
z
" id="TimesNewRomanPSMT-76" transform="scale(0.015625)"/>
      <path d="M 2222 322 
Q 2013 103 1813 7 
Q 1613 -88 1381 -88 
Q 913 -88 563 304 
Q 213 697 213 1313 
Q 213 1928 600 2439 
Q 988 2950 1597 2950 
Q 1975 2950 2222 2709 
L 2222 3238 
Q 2222 3728 2198 3840 
Q 2175 3953 2125 3993 
Q 2075 4034 2000 4034 
Q 1919 4034 1784 3984 
L 1744 4094 
L 2597 4444 
L 2738 4444 
L 2738 1134 
Q 2738 631 2761 520 
Q 2784 409 2836 365 
Q 2888 322 2956 322 
Q 3041 322 3181 375 
L 3216 266 
L 2366 -88 
L 2222 -88 
L 2222 322 
z
M 2222 541 
L 2222 2016 
Q 2203 2228 2109 2403 
Q 2016 2578 1861 2667 
Q 1706 2756 1559 2756 
Q 1284 2756 1069 2509 
Q 784 2184 784 1559 
Q 784 928 1059 592 
Q 1334 256 1672 256 
Q 1956 256 2222 541 
z
" id="TimesNewRomanPSMT-64" transform="scale(0.015625)"/>
     </defs>
     <use xlink:href="#TimesNewRomanPSMT-4c"/>
     <use x="61.083984" xlink:href="#TimesNewRomanPSMT-61"/>
     <use x="105.46875" xlink:href="#TimesNewRomanPSMT-70"/>
     <use x="155.46875" xlink:href="#TimesNewRomanPSMT-6c"/>
     <use x="183.251953" xlink:href="#TimesNewRomanPSMT-61"/>
     <use x="227.636719" xlink:href="#TimesNewRomanPSMT-63"/>
     <use x="272.021484" xlink:href="#TimesNewRomanPSMT-69"/>
     <use x="299.804688" xlink:href="#TimesNewRomanPSMT-61"/>
     <use x="344.189453" xlink:href="#TimesNewRomanPSMT-6e"/>
     <use x="394.189453" xlink:href="#TimesNewRomanPSMT-20"/>
     <use x="419.189453" xlink:href="#TimesNewRomanPSMT-6f"/>
     <use x="469.189453" xlink:href="#TimesNewRomanPSMT-66"/>
     <use x="502.490234" xlink:href="#TimesNewRomanPSMT-20"/>
     <use x="527.490234" xlink:href="#TimesNewRomanPSMT-46"/>
     <use x="583.105469" xlink:href="#TimesNewRomanPSMT-72"/>
     <use x="616.40625" xlink:href="#TimesNewRomanPSMT-61"/>
     <use x="660.791016" xlink:href="#TimesNewRomanPSMT-6d"/>
     <use x="738.574219" xlink:href="#TimesNewRomanPSMT-65"/>
     <use x="782.958984" xlink:href="#TimesNewRomanPSMT-73"/>
     <use x="821.875" xlink:href="#TimesNewRomanPSMT-20"/>
     <use x="846.875" xlink:href="#TimesNewRomanPSMT-6f"/>
     <use x="896.875" xlink:href="#TimesNewRomanPSMT-66"/>
     <use x="930.175781" xlink:href="#TimesNewRomanPSMT-20"/>
     <use x="955.175781" xlink:href="#TimesNewRomanPSMT-33"/>
     <use x="1005.175781" xlink:href="#TimesNewRomanPSMT-30"/>
     <use x="1055.175781" xlink:href="#TimesNewRomanPSMT-46"/>
     <use x="1110.791016" xlink:href="#TimesNewRomanPSMT-50"/>
     <use x="1166.40625" xlink:href="#TimesNewRomanPSMT-53"/>
     <use x="1222.021484" xlink:href="#TimesNewRomanPSMT-20"/>
     <use x="1247.021484" xlink:href="#TimesNewRomanPSMT-76"/>
     <use x="1297.021484" xlink:href="#TimesNewRomanPSMT-69"/>
     <use x="1324.804688" xlink:href="#TimesNewRomanPSMT-64"/>
     <use x="1374.804688" xlink:href="#TimesNewRomanPSMT-65"/>
     <use x="1419.189453" xlink:href="#TimesNewRomanPSMT-6f"/>
     <use x="1469.189453" xlink:href="#TimesNewRomanPSMT-73"/>
    </g>
   </g>
  </g>
 </g>
 <defs>
  <clipPath id="pc844a39414">
   <rect height="374.7744" width="796.266" x="128.43" y="58.4064"/>
  </clipPath>
 </defs>
</svg>
