<svg width="700" height="500" viewBox="0 0 700 500" xmlns="http://www.w3.org/2000/svg" xmlns:xlink="http://www.w3.org/1999/xlink" overflow="hidden"><defs id="defs-e118b2"><g></g><g></g><g></g></defs><defs id="topdefs-e118b2"><g></g></defs><rect x="0" y="0" width="700" height="500" fill="#FFFFFF"/><g></g><g><g></g><g></g></g><g></g><g></g><g></g><g></g><g></g><g></g><g></g><g></g><g></g><g><g stroke-linejoin="round"><g><path d="M350 250 350 250 350 250ZM433.333 250C433.333 296.024 396.024 333.333 350 333.333 303.976 333.333 266.667 296.024 266.667 250 266.667 203.976 303.976 166.667 350 166.667 396.024 166.667 433.333 203.976 433.333 250Z" stroke="#FFFFFF" fill="#FECB52"/><g><text fill="#2A3F5F" font-family="Times New Roman" font-size="24" text-anchor="middle" xml:space="preserve" transform="translate(349.492 258)" x="0" y="0">Outdoor</text></g></g><g><path d="M433.333 250 516.667 250C516.667 157.953 442.047 83.3333 350 83.3333 269.313 83.3333 200.214 141.132 185.956 220.55L267.978 235.275C276.11 189.975 319.426 159.845 364.725 167.978 404.434 175.107 433.333 209.656 433.333 250Z" stroke="#FFFFFF" fill="#636EFA"/><g><text fill="#FFFFFF" font-family="Times New Roman" font-size="24" text-anchor="middle" xml:space="preserve" transform="translate(360.916 133.493)" x="0" y="0">Square</text></g></g><g><path d="M267.978 235.275 185.956 220.55C170.716 305.441 222.759 387.936 305.939 410.737L327.969 330.368C286.379 318.968 260.358 277.72 267.978 235.275Z" stroke="#FFFFFF" fill="#FF6692"/><g><text fill="#444444" font-family="Times New Roman" font-size="24" text-anchor="middle" xml:space="preserve" transform="matrix(0.533562 0.845761 -0.845761 0.533562 241.067 318.131)" x="0" y="0">Courtyard</text></g></g><g><path d="M327.969 330.368 305.939 410.737C352.222 423.424 401.728 415.545 441.786 389.115L395.893 319.558C375.864 332.772 351.111 336.712 327.969 330.368Z" stroke="#FFFFFF" fill="#FF97FF"/><g><text fill="#444444" font-family="Times New Roman" font-size="24" text-anchor="middle" xml:space="preserve" transform="matrix(0.98757 -0.157182 0.157182 0.98757 373.569 399.128)" x="0" y="0">Sport Court</text></g></g><g><path d="M395.893 319.558 441.786 389.115C463.359 374.882 481.327 355.826 494.268 333.453L422.134 291.727C415.663 302.913 406.68 312.441 395.893 319.558Z" stroke="#FFFFFF" fill="#19D3F3"/><g><text fill="#444444" font-family="Times New Roman" font-size="24" text-anchor="middle" xml:space="preserve" transform="translate(448.128 350.994)" x="0" y="0">Park</text></g></g><g><path d="M422.134 291.727 494.268 333.453C505.077 314.767 512.154 294.159 515.103 272.774L432.552 261.387C431.077 272.079 427.539 282.384 422.134 291.727Z" stroke="#FFFFFF" fill="#FFA15A"/><g><text fill="#444444" font-family="Times New Roman" font-size="24" text-anchor="middle" xml:space="preserve" transform="matrix(0.895704 0.307553 -0.307553 0.895704 465.386 297.63)" x="0" y="0">Platform</text></g></g><g><path d="M432.552 261.387 515.103 272.774C516.144 265.227 516.667 257.618 516.667 250L433.333 250C433.333 253.809 433.072 257.614 432.552 261.387Z" stroke="#FFFFFF" fill="#B6E880"/><g><text fill="#444444" font-family="Times New Roman" font-size="24" text-anchor="middle" xml:space="preserve" transform="matrix(0.680933 0.0467423 -0.0467423 0.680933 499.406 265.729)" x="0" y="0">Cafe</text></g></g><g><path d="M516.667 250 600 250C600 224.584 596.124 199.316 588.506 175.069L509.004 200.046C514.083 216.211 516.667 233.056 516.667 250Z" stroke="#FFFFFF" fill="#636EFA" opacity="0.7"/><g><text fill="#FFFFFF" font-family="Times New Roman" font-size="24" text-anchor="middle" xml:space="preserve" transform="matrix(0.98844 -0.151616 0.151616 0.98844 556.841 226.366)" x="0" y="0">Urban</text></g></g><g><path d="M509.004 200.046 588.506 175.069C581.493 152.746 571.381 131.518 558.466 112.007L488.977 158.005C497.587 171.012 504.329 185.164 509.004 200.046Z" stroke="#FFFFFF" fill="#636EFA" opacity="0.7"/><g><text fill="#FFFFFF" font-family="Times New Roman" font-size="24" text-anchor="middle" xml:space="preserve" transform="matrix(0.902797 -0.430067 0.430067 0.902797 541.321 167.721)" x="0" y="0">Hiphop</text></g></g><g><path d="M488.977 158.005 558.466 112.007C548.022 96.2294 535.821 81.6887 522.096 68.6638L464.731 129.109C473.88 137.792 482.014 147.486 488.977 158.005Z" stroke="#FFFFFF" fill="#636EFA" opacity="0.7"/><g><text fill="#FFFFFF" font-family="Times New Roman" font-size="24" text-anchor="middle" xml:space="preserve" transform="matrix(0.458479 -0.38471 0.38471 0.458479 512.543 119.861)" x="0" y="0">Skipping rope</text></g></g><g><path d="M464.731 129.109 522.096 68.6638C508.414 55.6785 493.306 44.2836 477.061 34.6964L434.707 106.464C445.537 112.856 455.609 120.452 464.731 129.109Z" stroke="#FFFFFF" fill="#636EFA" opacity="0.7"/><g><text fill="#FFFFFF" font-family="Times New Roman" font-size="24" text-anchor="middle" xml:space="preserve" transform="matrix(0.55453 -0.735229 0.735229 0.55453 481.241 88.2278)" x="0" y="0">Breaking</text></g></g><g><path d="M434.707 106.464 477.06 34.6964C465.141 27.662 452.657 21.6296 439.739 16.6613L409.826 94.4409C418.438 97.753 426.76 101.775 434.707 106.464Z" stroke="#FFFFFF" fill="#636EFA" opacity="0.7"/><g><text fill="#FFFFFF" font-family="Times New Roman" font-size="24" text-anchor="middle" xml:space="preserve" transform="matrix(0.435097 -0.900384 0.900384 0.435097 453.752 53.683)" x="0" y="0">Talk</text></g></g><g><path d="M409.826 94.4409 439.739 16.6613C427.67 12.0199 415.26 8.32173 402.619 5.60018L385.079 87.0668C393.506 88.8811 401.78 91.3466 409.826 94.4409Z" stroke="#FFFFFF" fill="#636EFA" opacity="0.7"/><g><text fill="#FFFFFF" font-family="Times New Roman" font-size="24" text-anchor="middle" xml:space="preserve" transform="matrix(0.285573 -0.958357 0.958357 0.285573 419.742 43.9658)" x="0" y="0">Drink</text></g></g><g><path d="M385.079 87.0668 402.619 5.60018C390.779 3.05113 378.77 1.36578 366.686 0.557457L361.124 83.705C369.18 84.2439 377.186 85.3674 385.079 87.0668Z" stroke="#FFFFFF" fill="#636EFA" opacity="0.7"/><g><text fill="#FFFFFF" font-family="Times New Roman" font-size="24" text-anchor="middle" xml:space="preserve" transform="matrix(0.138976 -0.990296 0.990296 0.138976 388.73 31.5862)" x="0" y="0">Read</text></g></g><g><path d="M361.124 83.705 366.686 0.557457C358.803 0.0301851 350.901-0.123167 343.004 0.0979165L345.336 83.3986C350.6 83.2512 355.869 83.3535 361.124 83.705Z" stroke="#FFFFFF" fill="#636EFA" opacity="0.7"/><g><text fill="#FFFFFF" font-family="Times New Roman" font-size="24" text-anchor="middle" xml:space="preserve" transform="matrix(0.0143277 -0.73837 0.73837 0.0143277 360.342 21.5497)" x="0" y="0">Photo</text></g></g><g><path d="M345.336 83.3986 343.004 0.0979165C335.205 0.31626 327.42 0.899573 319.676 1.84594L329.784 84.564C334.947 83.933 340.136 83.5442 345.336 83.3986Z" stroke="#FFFFFF" fill="#636EFA" opacity="0.7"/><g><text fill="#FFFFFF" font-family="Times New Roman" font-size="24" text-anchor="middle" xml:space="preserve" transform="matrix(0.0598058 0.798128 -0.798128 0.0598058 325.769 12.3193)" x="0" y="0">Sit</text></g></g><g><path d="M329.784 84.564 319.676 1.84594C312.604 2.71006 305.573 3.87604 298.601 5.34069L315.734 86.8938C320.382 85.9174 325.07 85.14 329.784 84.564Z" stroke="#FFFFFF" fill="#636EFA" opacity="0.7"/><g><text fill="#FFFFFF" font-family="Times New Roman" font-size="24" text-anchor="middle" xml:space="preserve" transform="matrix(0.0815596 0.491828 -0.491828 0.0815596 311.949 44.9235)" x="0" y="0">Kick shuttlecock</text></g></g><g><path d="M315.734 86.8938 298.601 5.34069C293.173 6.48109 287.784 7.80183 282.444 9.30073L304.962 89.5338C308.523 88.5346 312.115 87.6541 315.734 86.8938Z" stroke="#FFFFFF" fill="#636EFA" opacity="0.7"/><g><text fill="#FFFFFF" font-family="Times New Roman" font-size="24" text-anchor="middle" xml:space="preserve" transform="matrix(0.128784 0.525463 -0.525463 0.128784 290.268 24.4628)" x="0" y="0">Jacket</text></g></g><g><path d="M304.962 89.5338 282.444 9.30073C277.158 10.7841 271.923 12.4412 266.747 14.2692L294.498 92.8462C297.949 91.6275 301.439 90.5228 304.962 89.5338Z" stroke="#FFFFFF" fill="#636EFA" opacity="0.7"/><g><text fill="#FFFFFF" font-family="Times New Roman" font-size="24" text-anchor="middle" xml:space="preserve" transform="matrix(0.156404 0.494104 -0.494104 0.156404 276.722 32.2434)" x="0" y="0">Rowing</text></g></g><g><path d="M294.498 92.8462 266.747 14.2692C261.691 16.0551 256.693 18.0033 251.761 20.1106L284.507 96.7404C287.795 95.3355 291.127 94.0368 294.498 92.8462Z" stroke="#FFFFFF" fill="#636EFA" opacity="0.7"/><g><text fill="#FFFFFF" font-family="Times New Roman" font-size="24" text-anchor="middle" xml:space="preserve" transform="matrix(0.175452 0.450126 -0.450126 0.175452 264.684 41.763)" x="0" y="0">Phone call</text></g></g><g><path d="M284.507 96.7404 251.761 20.1106C247.332 22.0035 242.958 24.0239 238.645 26.1694L275.763 100.78C278.639 99.3493 281.554 98.0023 284.507 96.7404Z" stroke="#FFFFFF" fill="#636EFA" opacity="0.7"/><g><text fill="#FFFFFF" font-family="Times New Roman" font-size="24" text-anchor="middle" xml:space="preserve" transform="matrix(0.204022 0.441658 -0.441658 0.204022 246.958 36.2206)" x="0" y="0">Latin</text></g></g><g><path d="M275.763 100.78 238.645 26.1694C234.344 28.3092 230.106 30.5726 225.935 32.9566L267.29 105.304C270.07 103.715 272.896 102.206 275.763 100.78Z" stroke="#FFFFFF" fill="#636EFA" opacity="0.7"/><g><text fill="#FFFFFF" font-family="Times New Roman" font-size="24" text-anchor="middle" xml:space="preserve" transform="matrix(0.23325 0.436809 -0.436809 0.23325 233.725 40.6607)" x="0" y="0">Jazz</text></g></g><g><path d="M267.29 105.304 225.935 32.9566C221.85 35.2914 217.833 37.7409 213.886 40.3024L259.258 110.202C261.888 108.494 264.567 106.861 267.29 105.304Z" stroke="#FFFFFF" fill="#636EFA" opacity="0.7"/><g><text fill="#FFFFFF" font-family="Times New Roman" font-size="24" text-anchor="middle" xml:space="preserve" transform="matrix(0.245394 0.402491 -0.402491 0.245394 223.723 50.1268)" x="0" y="0">Clean</text></g></g><g><path d="M259.258 110.202 213.886 40.3024C210.067 42.7818 206.315 45.3651 202.637 48.0494L251.758 115.366C254.21 113.577 256.711 111.855 259.258 110.202Z" stroke="#FFFFFF" fill="#636EFA" opacity="0.7"/><g><text fill="#FFFFFF" font-family="Times New Roman" font-size="24" text-anchor="middle" xml:space="preserve" transform="matrix(0.224121 0.325455 -0.325455 0.224121 221.785 69.3879)" x="0" y="0">Strentch lower</text></g></g><g><path d="M251.758 115.366 202.637 48.0494C199.013 50.6932 195.462 53.4341 191.986 56.269L244.658 120.846C246.975 118.956 249.342 117.129 251.758 115.366Z" stroke="#FFFFFF" fill="#636EFA" opacity="0.7"/><g><text fill="#FFFFFF" font-family="Times New Roman" font-size="24" text-anchor="middle" xml:space="preserve" transform="matrix(0.268222 0.347539 -0.347539 0.268222 204.501 67.2234)" x="0" y="0">Upstair</text></g></g><g><path d="M244.658 120.846 191.986 56.269C188.531 59.0876 185.151 61.9981 181.851 64.9975L237.901 126.665C240.101 124.665 242.354 122.725 244.658 120.846Z" stroke="#FFFFFF" fill="#636EFA" opacity="0.7"/><g><text fill="#FFFFFF" font-family="Times New Roman" font-size="24" text-anchor="middle" xml:space="preserve" transform="matrix(0.280606 0.325835 -0.325835 0.280606 195.964 76.4083)" x="0" y="0">Tie shoe</text></g></g><g><path d="M237.901 126.665 181.851 64.9975C178.577 67.9734 175.382 71.0357 172.271 74.1811L231.514 132.787C233.588 130.69 235.718 128.649 237.901 126.665Z" stroke="#FFFFFF" fill="#636EFA" opacity="0.7"/><g><text fill="#FFFFFF" font-family="Times New Roman" font-size="24" text-anchor="middle" xml:space="preserve" transform="matrix(0.281691 0.293861 -0.293861 0.281691 190.655 88.4767)" x="0" y="0">Arm lifting</text></g></g><g><path d="M231.514 132.787 172.271 74.1811C169.32 77.1634 166.446 80.2195 163.649 83.3464L225.766 138.898C227.63 136.813 229.547 134.776 231.514 132.787Z" stroke="#FFFFFF" fill="#636EFA" opacity="0.7"/><g><text fill="#FFFFFF" font-family="Times New Roman" font-size="24" text-anchor="middle" xml:space="preserve" transform="matrix(0.310945 0.292491 -0.292491 0.310945 174.322 89.437)" x="0" y="0">Squat</text></g></g><g><path d="M225.766 138.898 163.649 83.3465C161.023 86.283 158.467 89.2813 155.982 92.3387L220.655 144.892C222.311 142.854 224.015 140.855 225.766 138.898Z" stroke="#FFFFFF" fill="#636EFA" opacity="0.7"/><g><text fill="#FFFFFF" font-family="Times New Roman" font-size="24" text-anchor="middle" xml:space="preserve" transform="matrix(0.289196 0.246578 -0.246578 0.289196 171.554 101.846)" x="0" y="0">Umbrella</text></g></g><g><path d="M220.655 144.892 155.982 92.3387C153.604 95.2656 151.292 98.2459 149.048 101.277L216.032 150.852C217.528 148.831 219.069 146.844 220.655 144.892Z" stroke="#FFFFFF" fill="#636EFA" opacity="0.7"/><g><text fill="#FFFFFF" font-family="Times New Roman" font-size="24" text-anchor="middle" xml:space="preserve" transform="matrix(0.285811 0.221708 -0.221708 0.285811 165.37 110.442)" x="0" y="0">Packaging</text></g></g><g><path d="M216.032 150.852 149.048 101.277C146.894 104.188 144.803 107.145 142.778 110.147L211.852 156.765C213.202 154.764 214.596 152.792 216.032 150.852Z" stroke="#FFFFFF" fill="#636EFA" opacity="0.7"/><g><text fill="#FFFFFF" font-family="Times New Roman" font-size="24" text-anchor="middle" xml:space="preserve" transform="matrix(0.30632 0.216566 -0.216566 0.30632 152.338 113.93)" x="0" y="0">Jump</text></g></g><g><path d="M211.852 156.765 142.778 110.147C140.837 113.022 138.957 115.937 137.138 118.891L208.092 162.594C209.305 160.625 210.558 158.681 211.852 156.765Z" stroke="#FFFFFF" fill="#636EFA" opacity="0.7"/><g><text fill="#FFFFFF" font-family="Times New Roman" font-size="24" text-anchor="middle" xml:space="preserve" transform="matrix(0.267577 0.172592 -0.172592 0.267577 157.842 129.086)" x="0" y="0">Strentch upper</text></g></g><g><path d="M208.092 162.594 137.138 118.891C135.485 121.575 133.882 124.29 132.332 127.034L204.888 168.023C205.922 166.193 206.99 164.383 208.092 162.594Z" stroke="#FFFFFF" fill="#636EFA" opacity="0.7"/><g><text fill="#FFFFFF" font-family="Times New Roman" font-size="24" text-anchor="middle" xml:space="preserve" transform="matrix(0.260382 0.153663 -0.153663 0.260382 149.403 134.427)" x="0" y="0">Lateral raise</text></g></g><g><path d="M204.888 168.023 132.332 127.034C130.917 129.539 129.545 132.068 128.217 134.62L202.145 173.08C203.03 171.379 203.945 169.693 204.888 168.023Z" stroke="#FFFFFF" fill="#636EFA" opacity="0.7"/><g><text fill="#FFFFFF" font-family="Times New Roman" font-size="24" text-anchor="middle" xml:space="preserve" transform="matrix(0.255096 0.138357 -0.138357 0.255096 140.744 139.147)" x="0" y="0">Aerobics</text></g></g><g><path d="M202.145 173.08 128.217 134.62C126.923 137.109 125.67 139.62 124.459 142.151L199.64 178.101C200.446 176.413 201.282 174.74 202.145 173.08Z" stroke="#FFFFFF" fill="#636EFA" opacity="0.7"/><g><text fill="#FFFFFF" font-family="Times New Roman" font-size="24" text-anchor="middle" xml:space="preserve" transform="matrix(0.264203 0.131846 -0.131846 0.264203 132.547 144.124)" x="0" y="0">Write</text></g></g><g><path d="M199.64 178.101 124.459 142.151C123.36 144.45 122.296 146.765 121.268 149.096L197.512 182.731C198.197 181.177 198.907 179.633 199.64 178.101Z" stroke="#FFFFFF" fill="#636EFA" opacity="0.7"/><g><text fill="#FFFFFF" font-family="Times New Roman" font-size="24" text-anchor="middle" xml:space="preserve" transform="matrix(0.236526 0.108691 -0.108691 0.236526 132.527 152.356)" x="0" y="0">Take bag</text></g></g><g><path d="M197.512 182.731 121.268 149.096C120.367 151.138 119.494 153.192 118.648 155.257L195.765 186.838C196.329 185.461 196.911 184.092 197.512 182.731Z" stroke="#FFFFFF" fill="#636EFA" opacity="0.7"/><g><text fill="#FFFFFF" font-family="Times New Roman" font-size="24" text-anchor="middle" xml:space="preserve" transform="matrix(0.207559 0.0882627 -0.0882627 0.207559 130.943 158.809)" x="0" y="0">Move chair</text></g></g><g><path d="M195.765 186.838 118.648 155.257C117.96 156.938 117.29 158.625 116.639 160.32L194.426 190.213C194.86 189.083 195.307 187.958 195.765 186.838Z" stroke="#FFFFFF" fill="#636EFA" opacity="0.7"/><g><text fill="#FFFFFF" font-family="Times New Roman" font-size="24" text-anchor="middle" xml:space="preserve" transform="matrix(0.180706 0.0717136 -0.0717136 0.180706 122.745 161.487)" x="0" y="0">Dance</text></g></g><g><path d="M194.426 190.213 116.639 160.32C116.064 161.816 115.503 163.318 114.957 164.825L193.305 193.217C193.669 192.212 194.042 191.211 194.426 190.213Z" stroke="#FFFFFF" fill="#636EFA" opacity="0.7"/><g><text fill="#FFFFFF" font-family="Times New Roman" font-size="24" text-anchor="middle" xml:space="preserve" transform="matrix(0.161058 0.0601226 -0.0601226 0.161058 120.898 165.944)" x="0" y="0">Typing</text></g></g><g><path d="M193.305 193.217 114.957 164.825C114.426 166.291 113.908 167.762 113.405 169.237L192.27 196.158C192.606 195.175 192.951 194.194 193.305 193.217Z" stroke="#FFFFFF" fill="#636EFA" opacity="0.7"/><g><text fill="#FFFFFF" font-family="Times New Roman" font-size="24" text-anchor="middle" xml:space="preserve" transform="matrix(0.155695 0.0547786 -0.0547786 0.155695 120.864 170.782)" x="0" y="0">Arm curl</text></g></g><g><path d="M192.27 196.158 113.405 169.237C112.905 170.7 112.42 172.167 111.947 173.639L191.298 199.093C191.613 198.112 191.937 197.133 192.27 196.158Z" stroke="#FFFFFF" fill="#636EFA" opacity="0.7"/><g><text fill="#FFFFFF" font-family="Times New Roman" font-size="24" text-anchor="middle" xml:space="preserve" transform="matrix(0.157201 0.0520384 -0.0520384 0.157201 117.953 174.581)" x="0" y="0">Flybird</text></g></g><g><path d="M191.298 199.093 111.947 173.639C111.547 174.886 111.157 176.136 110.777 177.389L190.518 201.593C190.772 200.757 191.032 199.924 191.298 199.093Z" stroke="#FFFFFF" fill="#636EFA" opacity="0.7"/><g><text fill="#FFFFFF" font-family="Times New Roman" font-size="24" text-anchor="middle" xml:space="preserve" transform="matrix(0.128324 0.0400537 -0.0400537 0.128324 121.559 179.824)" x="0" y="0">Wear headphone</text></g></g><g><path d="M190.518 201.593 110.777 177.389C110.418 178.571 110.068 179.755 109.727 180.942L189.818 203.962C190.046 203.17 190.279 202.381 190.518 201.593Z" stroke="#FFFFFF" fill="#636EFA" opacity="0.7"/><g><text fill="#FFFFFF" font-family="Times New Roman" font-size="24" text-anchor="middle" xml:space="preserve" transform="matrix(0.125207 0.0369927 -0.0369927 0.125207 117.314 182.341)" x="0" y="0">Wash hands</text></g></g><g><path d="M189.818 203.962 109.727 180.942C109.399 182.084 109.079 183.228 108.767 184.374L189.178 206.25C189.386 205.485 189.599 204.723 189.818 203.962Z" stroke="#FFFFFF" fill="#636EFA" opacity="0.7"/><g><text fill="#FFFFFF" font-family="Times New Roman" font-size="24" text-anchor="middle" xml:space="preserve" transform="matrix(0.125013 0.0349677 -0.0349677 0.125013 112.471 184.638)" x="0" y="0">Stand</text></g></g><g><path d="M189.178 206.25 108.767 184.374C108.47 185.467 108.18 186.562 107.897 187.659L188.598 208.44C188.787 207.708 188.98 206.978 189.178 206.25Z" stroke="#FFFFFF" fill="#636EFA" opacity="0.7"/><g><text fill="#FFFFFF" font-family="Times New Roman" font-size="24" text-anchor="middle" xml:space="preserve" transform="matrix(0.11667 0.0308891 -0.0308891 0.11667 114.579 188.67)" x="0" y="0">Move table</text></g></g><g><path d="M188.598 208.44 107.897 187.659C107.658 188.589 107.424 189.52 107.196 190.452L188.13 210.301C188.283 209.68 188.439 209.059 188.598 208.44Z" stroke="#FFFFFF" fill="#636EFA" opacity="0.7"/><g><text fill="#FFFFFF" font-family="Times New Roman" font-size="24" text-anchor="middle" xml:space="preserve" transform="matrix(0.101023 0.0253937 -0.0253937 0.101023 111.728 190.966)" x="0" y="0">Wacking</text></g></g><g><path d="M188.13 210.301 107.196 190.452C106.968 191.379 106.746 192.308 106.529 193.238L187.686 212.159C187.831 211.539 187.979 210.919 188.13 210.301Z" stroke="#FFFFFF" fill="#636EFA" opacity="0.7"/><g><text fill="#FFFFFF" font-family="Times New Roman" font-size="24" text-anchor="middle" xml:space="preserve" transform="matrix(0.100101 0.0239427 -0.0239427 0.100101 111.901 193.897)" x="0" y="0">Leg lifting</text></g></g><g><path d="M187.686 212.159 106.529 193.238C106.334 194.076 106.143 194.915 105.956 195.755L187.304 213.837C187.428 213.277 187.556 212.717 187.686 212.159Z" stroke="#FFFFFF" fill="#636EFA" opacity="0.7"/><g><text fill="#FFFFFF" font-family="Times New Roman" font-size="24" text-anchor="middle" xml:space="preserve" transform="matrix(0.0905034 0.0206075 -0.0206075 0.0905034 111.177 196.382)" x="0" y="0">Clean chair</text></g></g><g><path d="M187.304 213.837 105.956 195.755C105.783 196.533 105.614 197.311 105.449 198.09L186.966 215.393C187.076 214.874 187.189 214.355 187.304 213.837Z" stroke="#FFFFFF" fill="#636EFA" opacity="0.7"/><g><text fill="#FFFFFF" font-family="Times New Roman" font-size="24" text-anchor="middle" xml:space="preserve" transform="matrix(0.086616 0.0188186 -0.0188186 0.086616 106.972 197.924)" x="0" y="0">Eat</text></g></g><g><path d="M186.966 215.393 105.449 198.09C105.286 198.854 105.128 199.619 104.973 200.385L186.648 216.923C186.752 216.413 186.858 215.903 186.966 215.393Z" stroke="#FFFFFF" fill="#636EFA" opacity="0.7"/><g><text fill="#FFFFFF" font-family="Times New Roman" font-size="24" text-anchor="middle" xml:space="preserve" transform="matrix(0.0841631 0.017453 -0.017453 0.0841631 107.89 200.495)" x="0" y="0">Posing</text></g></g><g><path d="M186.648 216.923 104.973 200.385C104.819 201.143 104.67 201.901 104.523 202.66L186.349 218.44C186.446 217.934 186.546 217.428 186.648 216.923Z" stroke="#FFFFFF" fill="#636EFA" opacity="0.7"/><g><text fill="#FFFFFF" font-family="Times New Roman" font-size="24" text-anchor="middle" xml:space="preserve" transform="matrix(0.082485 0.0163044 -0.0163044 0.082485 108.759 203.001)" x="0" y="0">Move mat</text></g></g><g><path d="M186.349 218.44 104.523 202.66C104.433 203.127 104.344 203.594 104.257 204.062L186.171 219.375C186.23 219.063 186.289 218.751 186.349 218.44Z" stroke="#FFFFFF" fill="#636EFA" opacity="0.7"/><g><text fill="#FFFFFF" font-family="Times New Roman" font-size="24" text-anchor="middle" xml:space="preserve" transform="matrix(0.0512316 0.00972845 -0.00972845 0.0512316 107.584 204.392)" x="0" y="0">Cross barrier</text></g></g><g><path d="M186.171 219.375 104.257 204.062C104.191 204.414 104.126 204.765 104.062 205.117L186.041 220.078C186.084 219.844 186.127 219.609 186.171 219.375Z" stroke="#FFFFFF" fill="#636EFA" opacity="0.7"/><g><text fill="#FFFFFF" font-family="Times New Roman" font-size="24" text-anchor="middle" xml:space="preserve" transform="matrix(0.0389225 0.00718956 -0.00718956 0.0389225 106.242 205.296)" x="0" y="0">Play phone</text></g></g><g><path d="M186.041 220.078 104.062 205.117C104.019 205.353 103.976 205.589 103.934 205.825L185.956 220.55C185.984 220.392 186.013 220.235 186.041 220.078Z" stroke="#FFFFFF" fill="#636EFA" opacity="0.7"/><g><text fill="#FFFFFF" font-family="Times New Roman" font-size="24" text-anchor="middle" xml:space="preserve" transform="matrix(0.0262401 0.00474976 -0.00474976 0.0262401 105.403 205.942)" x="0" y="0">Pick things</text></g></g><g><path d="M185.956 220.55 103.934 205.825C98.5169 235.999 98.6958 266.911 104.462 297.021L186.308 281.347C182.464 261.274 182.345 240.666 185.956 220.55Z" stroke="#FFFFFF" fill="#FF6692" opacity="0.7"/><g><text fill="#444444" font-family="Times New Roman" font-size="24" text-anchor="middle" xml:space="preserve" transform="translate(138.568 259.224)" x="0" y="0">Hiphop</text></g></g><g><path d="M186.308 281.347 104.462 297.021C108.291 317.015 114.547 336.466 123.093 354.943L198.728 319.962C193.031 307.644 188.86 294.676 186.308 281.347Z" stroke="#FFFFFF" fill="#FF6692" opacity="0.7"/><g><text fill="#444444" font-family="Times New Roman" font-size="24" text-anchor="middle" xml:space="preserve" transform="matrix(0.951815 -0.306154 0.306154 0.951815 153.816 321.506)" x="0" y="0">Strentch</text></g></g><g><path d="M198.728 319.962 123.093 354.943C131.442 372.995 141.915 389.987 154.291 405.557L219.527 353.704C211.277 343.324 204.294 331.997 198.728 319.962Z" stroke="#FFFFFF" fill="#FF6692" opacity="0.7"/><g><text fill="#444444" font-family="Times New Roman" font-size="24" text-anchor="middle" xml:space="preserve" transform="matrix(0.851273 -0.524722 0.524722 0.851273 175.848 366.745)" x="0" y="0">Latin</text></g></g><g><path d="M219.527 353.704 154.291 405.557C165.864 420.117 179.025 433.34 193.531 444.981L245.688 379.987C236.017 372.227 227.242 363.411 219.527 353.704Z" stroke="#FFFFFF" fill="#FF6692" opacity="0.7"/><g><text fill="#444444" font-family="Times New Roman" font-size="24" text-anchor="middle" xml:space="preserve" transform="matrix(0.708756 -0.705454 0.705454 0.708756 208.199 402.428)" x="0" y="0">Urban</text></g></g><g><path d="M245.688 379.987 193.531 444.981C199.33 449.634 205.334 454.027 211.524 458.145L257.683 388.763C253.556 386.018 249.553 383.09 245.688 379.987Z" stroke="#FFFFFF" fill="#FF6692" opacity="0.7"/><g><text fill="#444444" font-family="Times New Roman" font-size="24" text-anchor="middle" xml:space="preserve" transform="matrix(0.412616 -0.563958 0.563958 0.412616 219.118 438.355)" x="0" y="0">Ballet</text></g></g><g><path d="M257.683 388.763 211.524 458.145C216.56 461.495 221.715 464.662 226.98 467.638L267.987 395.092C264.477 393.108 261.04 390.997 257.683 388.763Z" stroke="#FFFFFF" fill="#FF6692" opacity="0.7"/><g><text fill="#444444" font-family="Times New Roman" font-size="24" text-anchor="middle" xml:space="preserve" transform="matrix(0.28823 -0.469313 0.469313 0.28823 235.486 444.877)" x="0" y="0">Wacking</text></g></g><g><path d="M267.987 395.092 226.98 467.638C231.946 470.445 237.007 473.081 242.153 475.542L278.102 400.361C274.671 398.721 271.298 396.963 267.987 395.092Z" stroke="#FFFFFF" fill="#FF6692" opacity="0.7"/><g><text fill="#444444" font-family="Times New Roman" font-size="24" text-anchor="middle" xml:space="preserve" transform="matrix(0.260192 -0.499473 0.499473 0.260192 245.657 460.052)" x="0" y="0">Kpop</text></g></g><g><path d="M278.102 400.361 242.153 475.542C246.326 477.537 250.554 479.417 254.832 481.178L286.555 404.118C283.703 402.944 280.884 401.691 278.102 400.361Z" stroke="#FFFFFF" fill="#FF6692" opacity="0.7"/><g><text fill="#444444" font-family="Times New Roman" font-size="24" text-anchor="middle" xml:space="preserve" transform="matrix(0.172431 -0.387915 0.387915 0.172431 260.947 458.702)" x="0" y="0">Folk dance</text></g></g><g><path d="M286.555 404.118 254.832 481.178C257.777 482.39 260.746 483.546 263.735 484.645L292.49 406.43C290.497 405.697 288.518 404.927 286.555 404.118Z" stroke="#FFFFFF" fill="#FF6692" opacity="0.7"/><g><text fill="#444444" font-family="Times New Roman" font-size="24" text-anchor="middle" xml:space="preserve" transform="matrix(0.12027 -0.308791 0.308791 0.12027 265.204 475.016)" x="0" y="0">Photo</text></g></g><g><path d="M292.49 406.43 263.735 484.645C265.926 485.451 268.127 486.225 270.339 486.969L296.893 407.979C295.418 407.483 293.951 406.967 292.49 406.43Z" stroke="#FFFFFF" fill="#FF6692" opacity="0.7"/><g><text fill="#444444" font-family="Times New Roman" font-size="24" text-anchor="middle" xml:space="preserve" transform="matrix(0.0793541 -0.22555 0.22555 0.0793541 272.606 475.741)" x="0" y="0">Umbrella</text></g></g><g><path d="M296.893 407.979 270.339 486.969C271.729 487.436 273.122 487.891 274.519 488.333L299.68 408.889C298.748 408.594 297.819 408.29 296.893 407.979Z" stroke="#FFFFFF" fill="#FF6692" opacity="0.7"/><g><text fill="#444444" font-family="Times New Roman" font-size="24" text-anchor="middle" xml:space="preserve" transform="matrix(0.0493489 -0.151189 0.151189 0.0493489 275.054 483.709)" x="0" y="0">Relax</text></g></g><g><path d="M299.68 408.889 274.519 488.333C275.819 488.745 277.122 489.146 278.429 489.536L302.286 409.691C301.415 409.43 300.546 409.163 299.68 408.889Z" stroke="#FFFFFF" fill="#FF6692" opacity="0.7"/><g><text fill="#444444" font-family="Times New Roman" font-size="24" text-anchor="middle" xml:space="preserve" transform="matrix(0.0435936 -0.141664 0.141664 0.0435936 278.858 485.218)" x="0" y="0">Drink</text></g></g><g><path d="M302.286 409.691 278.429 489.536C278.849 489.662 279.271 489.786 279.692 489.91L303.128 409.94C302.847 409.858 302.566 409.775 302.286 409.691Z" stroke="#FFFFFF" fill="#FF6692" opacity="0.7"/><g><text fill="#444444" font-family="Times New Roman" font-size="24" text-anchor="middle" xml:space="preserve" transform="matrix(0.0137374 -0.0464221 0.0464221 0.0137374 280.187 487.28)" x="0" y="0">Play phone</text></g></g><g><path d="M303.128 409.94 279.692 489.91C280.057 490.017 280.421 490.123 280.786 490.228L303.857 410.152C303.614 410.082 303.371 410.011 303.128 409.94Z" stroke="#FFFFFF" fill="#FF6692" opacity="0.7"/><g><text fill="#444444" font-family="Times New Roman" font-size="24" text-anchor="middle" xml:space="preserve" transform="matrix(0.0117029 -0.0402734 0.0402734 0.0117029 281.221 487.893)" x="0" y="0">Move chair</text></g></g><g><path d="M303.857 410.152 280.786 490.228C281.112 490.322 281.439 490.415 281.766 490.508L304.511 410.339C304.293 410.277 304.075 410.215 303.857 410.152Z" stroke="#FFFFFF" fill="#FF6692" opacity="0.7"/><g><text fill="#444444" font-family="Times New Roman" font-size="24" text-anchor="middle" xml:space="preserve" transform="matrix(0.0103562 -0.0362216 0.0362216 0.0103562 282.086 488.632)" x="0" y="0">Make hair</text></g></g><g><path d="M304.511 410.339 281.766 490.508C282.04 490.586 282.315 490.663 282.589 490.74L305.06 410.493C304.876 410.442 304.693 410.391 304.511 410.339Z" stroke="#FFFFFF" fill="#FF6692" opacity="0.7"/><g><text fill="#444444" font-family="Times New Roman" font-size="24" text-anchor="middle" xml:space="preserve" transform="matrix(0.00857591 -0.0304261 0.0304261 0.00857591 282.951 488.811)" x="0" y="0">Move things</text></g></g><g><path d="M305.06 410.493 282.589 490.74C282.851 490.813 283.113 490.886 283.374 490.959L305.583 410.639C305.408 410.591 305.234 410.542 305.06 410.493Z" stroke="#FFFFFF" fill="#FF6692" opacity="0.7"/><g><text fill="#444444" font-family="Times New Roman" font-size="24" text-anchor="middle" xml:space="preserve" transform="matrix(0.0081736 -0.0293742 0.0293742 0.0081736 283.329 490.513)" x="0" y="0">Sit</text></g></g><g><path d="M305.583 410.639 283.374 490.959C283.552 491.008 283.73 491.057 283.908 491.105L305.939 410.737C305.82 410.704 305.702 410.672 305.583 410.639Z" stroke="#FFFFFF" fill="#FF6692" opacity="0.7"/><g><text fill="#444444" font-family="Times New Roman" font-size="24" text-anchor="middle" xml:space="preserve" transform="matrix(0.00548859 -0.019936 0.019936 0.00548859 283.955 490.517)" x="0" y="0">Stand</text></g></g><g><path d="M305.939 410.737 283.908 491.105C299.795 495.461 316.074 498.235 332.508 499.387L338.338 416.258C327.383 415.49 316.53 413.64 305.939 410.737Z" stroke="#FFFFFF" fill="#FF97FF" opacity="0.7"/><g><text fill="#444444" font-family="Times New Roman" font-size="24" text-anchor="middle" xml:space="preserve" transform="matrix(0.138507 -0.812789 0.812789 0.138507 321.502 456.495)" x="0" y="0">Shoot ball</text></g></g><g><path d="M338.338 416.258 332.508 499.387C345.41 500.292 358.363 500.195 371.25 499.095L364.167 416.064C355.575 416.796 346.94 416.862 338.338 416.258Z" stroke="#FFFFFF" fill="#FF97FF" opacity="0.7"/><g><text fill="#444444" font-family="Times New Roman" font-size="24" text-anchor="middle" xml:space="preserve" transform="matrix(0.00753734 0.999972 -0.999972 0.00753734 343.593 461.346)" x="0" y="0">Dribble</text></g></g><g><path d="M364.167 416.064 371.25 499.095C381.867 498.19 392.416 496.606 402.831 494.354L385.221 412.903C378.277 414.404 371.245 415.46 364.167 416.064Z" stroke="#FFFFFF" fill="#FF97FF" opacity="0.7"/><g><text fill="#444444" font-family="Times New Roman" font-size="24" text-anchor="middle" xml:space="preserve" transform="matrix(0.125594 0.836581 -0.836581 0.125594 374.895 461.41)" x="0" y="0">Pass ball</text></g></g><g><path d="M385.221 412.903 402.831 494.354C412.244 492.319 421.531 489.742 430.646 486.635L403.764 407.757C397.687 409.828 391.496 411.546 385.221 412.903Z" stroke="#FFFFFF" fill="#FF97FF" opacity="0.7"/><g><text fill="#444444" font-family="Times New Roman" font-size="24" text-anchor="middle" xml:space="preserve" transform="matrix(0.153332 0.552539 -0.552539 0.153332 401.195 451.637)" x="0" y="0">Strentch upper</text></g></g><g><path d="M403.764 407.757 430.646 486.635C439.676 483.558 448.522 479.966 457.141 475.878L421.427 400.585C415.681 403.311 409.784 405.705 403.764 407.757Z" stroke="#FFFFFF" fill="#FF97FF" opacity="0.7"/><g><text fill="#444444" font-family="Times New Roman" font-size="24" text-anchor="middle" xml:space="preserve" transform="matrix(0.22515 0.554538 -0.554538 0.22515 423.874 444.677)" x="0" y="0">Skipping rope</text></g></g><g><path d="M421.427 400.585 457.141 475.878C462.546 473.314 467.858 470.557 473.066 467.612L432.044 395.074C428.572 397.038 425.031 398.876 421.427 400.585Z" stroke="#FFFFFF" fill="#FF97FF" opacity="0.7"/><g><text fill="#444444" font-family="Times New Roman" font-size="24" text-anchor="middle" xml:space="preserve" transform="matrix(0.223115 0.429827 -0.429827 0.223115 445.398 442.191)" x="0" y="0">Strentch lower</text></g></g><g><path d="M432.044 395.074 473.066 467.612C474.433 466.839 475.792 466.053 477.145 465.254L434.763 393.503C433.862 394.035 432.955 394.559 432.044 395.074Z" stroke="#FFFFFF" fill="#FF97FF" opacity="0.7"/><g><text fill="#444444" font-family="Times New Roman" font-size="24" text-anchor="middle" xml:space="preserve" transform="matrix(0.0858448 0.148512 -0.148512 0.0858448 472.04 463.872)" x="0" y="0">Pass</text></g></g><g><path d="M434.763 393.503 477.145 465.254C478.265 464.592 479.381 463.921 480.491 463.242L436.994 392.161C436.254 392.614 435.51 393.061 434.763 393.503Z" stroke="#FFFFFF" fill="#FF97FF" opacity="0.7"/><g><text fill="#444444" font-family="Times New Roman" font-size="24" text-anchor="middle" xml:space="preserve" transform="matrix(0.0720208 0.119784 -0.119784 0.0720208 474.835 459.794)" x="0" y="0">Strentch</text></g></g><g><path d="M436.994 392.161 480.491 463.242C481.007 462.926 481.523 462.608 482.037 462.288L438.025 391.525C437.682 391.738 437.338 391.951 436.994 392.161Z" stroke="#FFFFFF" fill="#FF97FF" opacity="0.7"/><g><text fill="#444444" font-family="Times New Roman" font-size="24" text-anchor="middle" xml:space="preserve" transform="matrix(0.0346493 0.0561627 -0.0561627 0.0346493 478.673 459.57)" x="0" y="0">Move things</text></g></g><g><path d="M438.025 391.525 482.037 462.288C482.539 461.976 483.039 461.662 483.539 461.347L439.026 390.898C438.693 391.108 438.359 391.317 438.025 391.525Z" stroke="#FFFFFF" fill="#FF97FF" opacity="0.7"/><g><text fill="#444444" font-family="Times New Roman" font-size="24" text-anchor="middle" xml:space="preserve" transform="matrix(0.0344038 0.0548793 -0.0548793 0.0344038 480.61 459.319)" x="0" y="0">Move mat</text></g></g><g><path d="M439.026 390.898 483.539 461.347C483.979 461.068 484.419 460.788 484.858 460.507L439.906 390.338C439.613 390.526 439.32 390.712 439.026 390.898Z" stroke="#FFFFFF" fill="#FF97FF" opacity="0.7"/><g><text fill="#444444" font-family="Times New Roman" font-size="24" text-anchor="middle" xml:space="preserve" transform="matrix(0.0306627 0.0481943 -0.0481943 0.0306627 481.99 458.308)" x="0" y="0">Wave hands</text></g></g><g><path d="M439.906 390.338 484.858 460.507C485.237 460.264 485.615 460.021 485.993 459.776L440.662 389.851C440.41 390.014 440.158 390.176 439.906 390.338Z" stroke="#FFFFFF" fill="#FF97FF" opacity="0.7"/><g><text fill="#444444" font-family="Times New Roman" font-size="24" text-anchor="middle" xml:space="preserve" transform="matrix(0.0271284 0.0420954 -0.0420954 0.0271284 484.283 459.108)" x="0" y="0">Drink</text></g></g><g><path d="M440.662 389.851 485.993 459.776C486.185 459.651 486.378 459.526 486.57 459.401L441.047 389.6C440.919 389.684 440.79 389.767 440.662 389.851Z" stroke="#FFFFFF" fill="#FF97FF" opacity="0.7"/><g><text fill="#444444" font-family="Times New Roman" font-size="24" text-anchor="middle" xml:space="preserve" transform="matrix(0.0139371 0.021434 -0.021434 0.0139371 485.382 458.58)" x="0" y="0">Leg lifting</text></g></g><g><path d="M441.047 389.6 486.57 459.401C486.76 459.276 486.951 459.152 487.141 459.027L441.427 389.352C441.3 389.435 441.174 389.518 441.047 389.6Z" stroke="#FFFFFF" fill="#FF97FF" opacity="0.7"/><g><text fill="#444444" font-family="Times New Roman" font-size="24" text-anchor="middle" xml:space="preserve" transform="matrix(0.0138896 0.0212334 -0.0212334 0.0138896 486.103 458.435)" x="0" y="0">Tie shoe</text></g></g><g><path d="M441.427 389.352 487.141 459.027C487.258 458.95 487.376 458.873 487.493 458.796L441.662 389.197C441.584 389.249 441.505 389.3 441.427 389.352Z" stroke="#FFFFFF" fill="#FF97FF" opacity="0.7"/><g><text fill="#444444" font-family="Times New Roman" font-size="24" text-anchor="middle" xml:space="preserve" transform="matrix(0.00866847 0.0131881 -0.0131881 0.00866847 486.98 458.629)" x="0" y="0">Jump</text></g></g><g><path d="M441.662 389.197 487.493 458.796C487.555 458.755 487.617 458.714 487.679 458.673L441.786 389.115C441.745 389.143 441.703 389.17 441.662 389.197Z" stroke="#FFFFFF" fill="#FF97FF" opacity="0.7"/><g><text fill="#444444" font-family="Times New Roman" font-size="24" text-anchor="middle" xml:space="preserve" transform="matrix(0.00459459 0.00697054 -0.00697054 0.00459459 487.426 458.613)" x="0" y="0">Talk</text></g></g><g><path d="M441.786 389.115 487.679 458.673C515.822 440.105 539.918 416.036 558.518 387.915L489.012 341.943C476.612 360.691 460.548 376.737 441.786 389.115Z" stroke="#FFFFFF" fill="#19D3F3" opacity="0.7"/><g><text fill="#444444" font-family="Times New Roman" font-size="24" text-anchor="middle" xml:space="preserve" transform="translate(497.231 405.397)" x="0" y="0">Hiphop</text></g></g><g><path d="M489.012 341.943 558.518 387.915C561.272 383.749 563.902 379.503 566.402 375.18L494.268 333.453C492.601 336.335 490.848 339.166 489.012 341.943Z" stroke="#FFFFFF" fill="#19D3F3" opacity="0.7"/><g><text fill="#444444" font-family="Times New Roman" font-size="24" text-anchor="middle" xml:space="preserve" transform="matrix(0.402873 0.249444 -0.249444 0.402873 543.573 374.312)" x="0" y="0">Strentch</text></g></g><g><path d="M494.268 333.453 566.402 375.18C572.91 363.93 578.53 352.19 583.212 340.066L505.475 310.044C502.354 318.127 498.607 325.953 494.268 333.453Z" stroke="#FFFFFF" fill="#FFA15A" opacity="0.7"/><g><text fill="#444444" font-family="Times New Roman" font-size="24" text-anchor="middle" xml:space="preserve" transform="matrix(0.901968 0.431803 -0.431803 0.901968 544.533 351.999)" x="0" y="0">Latin</text></g></g><g><path d="M505.475 310.044 583.213 340.066C586.206 332.316 588.81 324.422 591.018 316.412L510.678 294.275C509.207 299.614 507.47 304.877 505.475 310.044Z" stroke="#FFFFFF" fill="#FFA15A" opacity="0.7"/><g><text fill="#444444" font-family="Times New Roman" font-size="24" text-anchor="middle" xml:space="preserve" transform="matrix(0.696073 0.229678 -0.229678 0.696073 559.717 325.374)" x="0" y="0">Hiphop</text></g></g><g><path d="M510.678 294.275 591.018 316.412C592.187 312.168 593.244 307.893 594.188 303.593L512.792 285.729C512.163 288.595 511.458 291.445 510.678 294.275Z" stroke="#FFFFFF" fill="#FFA15A" opacity="0.7"/><g><text fill="#444444" font-family="Times New Roman" font-size="24" text-anchor="middle" xml:space="preserve" transform="matrix(0.425343 0.105199 -0.105199 0.425343 577.545 309.889)" x="0" y="0">Throw</text></g></g><g><path d="M512.792 285.729 594.188 303.593C594.587 301.775 594.966 299.953 595.324 298.126L513.549 282.084C513.31 283.302 513.058 284.517 512.792 285.729Z" stroke="#FFFFFF" fill="#FFA15A" opacity="0.7"/><g><text fill="#444444" font-family="Times New Roman" font-size="24" text-anchor="middle" xml:space="preserve" transform="matrix(0.191858 0.0398677 -0.0398677 0.191858 586.382 300.721)" x="0" y="0">Strentch</text></g></g><g><path d="M513.549 282.084 595.324 298.126C595.641 296.512 595.941 294.895 596.226 293.274L514.151 278.849C513.961 279.93 513.76 281.008 513.549 282.084Z" stroke="#FFFFFF" fill="#FFA15A" opacity="0.7"/><g><text fill="#444444" font-family="Times New Roman" font-size="24" text-anchor="middle" xml:space="preserve" transform="matrix(0.174214 0.032394 -0.032394 0.174214 590.135 296.093)" x="0" y="0">Taichi</text></g></g><g><path d="M514.151 278.849 596.226 293.274C596.372 292.443 596.514 291.612 596.652 290.779L514.434 277.186C514.343 277.741 514.248 278.295 514.151 278.849Z" stroke="#FFFFFF" fill="#FFA15A" opacity="0.7"/><g><text fill="#444444" font-family="Times New Roman" font-size="24" text-anchor="middle" xml:space="preserve" transform="matrix(0.0894546 0.0152552 -0.0152552 0.0894546 590.786 291.799)" x="0" y="0">Move things</text></g></g><g><path d="M514.434 277.186 596.652 290.779C596.771 290.054 596.888 289.329 597.002 288.603L514.668 275.736C514.592 276.219 514.514 276.703 514.434 277.186Z" stroke="#FFFFFF" fill="#FFA15A" opacity="0.7"/><g><text fill="#444444" font-family="Times New Roman" font-size="24" text-anchor="middle" xml:space="preserve" transform="matrix(0.0797619 0.0128262 -0.0128262 0.0797619 593.836 289.865)" x="0" y="0">Boxing</text></g></g><g><path d="M514.668 275.736 597.002 288.603C597.056 288.256 597.11 287.908 597.162 287.559L514.775 275.04C514.74 275.272 514.704 275.504 514.668 275.736Z" stroke="#FFFFFF" fill="#FFA15A" opacity="0.7"/><g><text fill="#444444" font-family="Times New Roman" font-size="24" text-anchor="middle" xml:space="preserve" transform="matrix(0.0383068 0.00590402 -0.00590402 0.0383068 594.236 287.957)" x="0" y="0">Strentch lower</text></g></g><g><path d="M514.775 275.04 597.162 287.559C597.208 287.262 597.252 286.964 597.297 286.667L514.864 274.444C514.835 274.643 514.805 274.841 514.775 275.04Z" stroke="#FFFFFF" fill="#FFA15A" opacity="0.7"/><g><text fill="#444444" font-family="Times New Roman" font-size="24" text-anchor="middle" xml:space="preserve" transform="matrix(0.0329803 0.00495087 -0.00495087 0.0329803 595.229 287.083)" x="0" y="0">Wave hands</text></g></g><g><path d="M514.864 274.444 597.297 286.667C597.341 286.37 597.384 286.072 597.427 285.775L514.951 273.85C514.923 274.048 514.894 274.246 514.864 274.444Z" stroke="#FFFFFF" fill="#FFA15A" opacity="0.7"/><g><text fill="#444444" font-family="Times New Roman" font-size="24" text-anchor="middle" xml:space="preserve" transform="matrix(0.0332673 0.0048713 -0.0048713 0.0332673 596.568 286.377)" x="0" y="0">Talk</text></g></g><g><path d="M514.951 273.85 597.427 285.775C597.468 285.492 597.508 285.21 597.548 284.927L515.032 273.284C515.006 273.473 514.979 273.662 514.951 273.85Z" stroke="#FFFFFF" fill="#FFA15A" opacity="0.7"/><g><text fill="#444444" font-family="Times New Roman" font-size="24" text-anchor="middle" xml:space="preserve" transform="matrix(0.0317185 0.00453064 -0.00453064 0.0317185 596.921 285.529)" x="0" y="0">Eat</text></g></g><g><path d="M515.032 273.284 597.548 284.927C597.562 284.829 597.576 284.731 597.59 284.633L515.06 273.088C515.051 273.154 515.041 273.219 515.032 273.284Z" stroke="#FFFFFF" fill="#FFA15A" opacity="0.7"/><g><text fill="#444444" font-family="Times New Roman" font-size="24" text-anchor="middle" xml:space="preserve" transform="matrix(0.0109796 0.00154247 -0.00154247 0.0109796 596.879 284.772)" x="0" y="0">Turn around</text></g></g><g><path d="M515.06 273.088 597.59 284.633C597.601 284.549 597.613 284.465 597.624 284.382L515.083 272.921C515.075 272.977 515.068 273.033 515.06 273.088Z" stroke="#FFFFFF" fill="#FFA15A" opacity="0.7"/><g><text fill="#444444" font-family="Times New Roman" font-size="24" text-anchor="middle" xml:space="preserve" transform="matrix(0.00938626 0.0013081 -0.0013081 0.00938626 597.282 284.539)" x="0" y="0">Posing</text></g></g><g><path d="M515.083 272.921 597.625 284.382C597.635 284.308 597.645 284.235 597.655 284.161L515.103 272.774C515.097 272.823 515.09 272.872 515.083 272.921Z" stroke="#FFFFFF" fill="#FFA15A" opacity="0.7"/><g><text fill="#444444" font-family="Times New Roman" font-size="24" text-anchor="middle" xml:space="preserve" transform="matrix(0.00826853 0.00114431 -0.00114431 0.00826853 597.425 284.309)" x="0" y="0">Kick</text></g></g><g><path d="M515.103 272.774 597.655 284.161C598.04 281.372 598.377 278.576 598.668 275.776L515.778 267.184C515.585 269.051 515.36 270.915 515.103 272.774Z" stroke="#FFFFFF" fill="#B6E880" opacity="0.7"/><g><text fill="#444444" font-family="Times New Roman" font-size="24" text-anchor="middle" xml:space="preserve" transform="matrix(0.302092 0.0364813 -0.0364813 0.302092 592.82 281.775)" x="0" y="0">Eat</text></g></g><g><path d="M515.778 267.184 598.668 275.776C598.839 274.121 598.994 272.465 599.133 270.808L516.088 263.872C515.996 264.977 515.893 266.081 515.778 267.184Z" stroke="#FFFFFF" fill="#B6E880" opacity="0.7"/><g><text fill="#444444" font-family="Times New Roman" font-size="24" text-anchor="middle" xml:space="preserve" transform="matrix(0.178791 0.0167311 -0.0167311 0.178791 593.635 274.242)" x="0" y="0">Photo</text></g></g><g><path d="M516.088 263.872 599.133 270.808C599.262 269.257 599.377 267.704 599.478 266.15L516.319 260.767C516.251 261.803 516.175 262.838 516.088 263.872Z" stroke="#FFFFFF" fill="#B6E880" opacity="0.7"/><g><text fill="#444444" font-family="Times New Roman" font-size="24" text-anchor="middle" xml:space="preserve" transform="matrix(0.164004 0.0121563 -0.0121563 0.164004 591.533 269.222)" x="0" y="0">Umbrella</text></g></g><g><path d="M516.319 260.767 599.478 266.15C599.577 264.622 599.662 263.093 599.732 261.563L516.488 257.708C516.441 258.728 516.384 259.748 516.318 260.767Z" stroke="#FFFFFF" fill="#B6E880" opacity="0.7"/><g><text fill="#444444" font-family="Times New Roman" font-size="24" text-anchor="middle" xml:space="preserve" transform="matrix(0.162561 0.00902431 -0.00902431 0.162561 592.541 264.769)" x="0" y="0">Greeting</text></g></g><g><path d="M516.488 257.708 599.732 261.563C599.803 260.045 599.859 258.527 599.902 257.008L516.601 254.672C516.573 255.685 516.535 256.697 516.488 257.708Z" stroke="#FFFFFF" fill="#B6E880" opacity="0.7"/><g><text fill="#444444" font-family="Times New Roman" font-size="24" text-anchor="middle" xml:space="preserve" transform="matrix(0.159761 0.00593821 -0.00593821 0.159761 591.586 260.259)" x="0" y="0">Packaging</text></g></g><g><path d="M516.601 254.672 599.902 257.008C599.93 255.995 599.952 254.981 599.969 253.967L516.646 252.645C516.635 253.321 516.62 253.996 516.601 254.672Z" stroke="#FFFFFF" fill="#B6E880" opacity="0.7"/><g><text fill="#444444" font-family="Times New Roman" font-size="24" text-anchor="middle" xml:space="preserve" transform="matrix(0.112749 0.00247551 -0.00247551 0.112749 598.335 256.355)" x="0" y="0">Sit</text></g></g><g><path d="M516.646 252.645 599.969 253.967C599.978 253.362 599.986 252.757 599.991 252.151L516.661 251.434C516.657 251.838 516.652 252.241 516.646 252.645Z" stroke="#FFFFFF" fill="#B6E880" opacity="0.7"/><g><text fill="#444444" font-family="Times New Roman" font-size="24" text-anchor="middle" xml:space="preserve" transform="matrix(0.066333 0.000811736 -0.000811736 0.066333 596.642 253.549)" x="0" y="0">Pick thing</text></g></g><g><path d="M516.661 251.434 599.991 252.151C599.994 251.786 599.996 251.42 599.998 251.055L516.665 250.703C516.664 250.947 516.663 251.191 516.66 251.434Z" stroke="#FFFFFF" fill="#B6E880" opacity="0.7"/><g><text fill="#444444" font-family="Times New Roman" font-size="24" text-anchor="middle" xml:space="preserve" transform="matrix(0.0404986 0.000259678 -0.000259678 0.0404986 597.946 251.914)" x="0" y="0">Move mat</text></g></g><g><path d="M516.665 250.703 599.998 251.055C599.999 250.703 600 250.352 600 250L516.667 250C516.667 250.234 516.666 250.469 516.665 250.703Z" stroke="#FFFFFF" fill="#B6E880" opacity="0.7"/><g><text fill="#444444" font-family="Times New Roman" font-size="24" text-anchor="middle" xml:space="preserve" transform="matrix(0.0391767 8.26314e-05 -8.26314e-05 0.0391767 598.687 250.838)" x="0" y="0">Throw</text></g></g></g></g><g></g><g><g></g><g></g></g><g><g></g></g></svg>